<svg viewBox="0 0 1620 1028" xmlns="http://www.w3.org/2000/svg"><g id="a"></g><g id="b"><g id="c"><g><path fill="#e8f2fa" d="M68.04,1025.87s-113.47-100.22-34.35-339.78c46.64-141.23,203.99-119.55,196.03-373.21C221.76,59.22,366.8-51.35,626.79,63.78c187.63,83.09,468.97-292.85,701.56,179.74,89.7,182.27,246.69,158.65,288.49,491.98,11.42,91.11-5.71,186.5-90.36,290.37H68.04Z"></path><path fill="#dceaff" d="M753.28,421.34l13.57-11.38c1.14-.94,2.64-1.07,3.9-.35,1.6,.92,3.24,1.78,4.93,2.57,3.14,1.46,6.3,2.64,9.48,3.49,1.49,.4,2.61,1.76,2.83,3.46l2.68,19.74c.27,2.11,1.95,3.63,3.85,3.49l16.11-1.2c1.83-.14,3.25-1.8,3.34-3.86l.69-18.37c.03-1.79,1.13-3.33,2.7-3.81,6.63-2.05,12.96-5.31,18.74-9.63,1.4-1.04,3.28-.86,4.52,.41l7.3,7.55c1.4,1.42,3.53,1.47,4.96,.06l11.99-12.02c.25-.24,.46-.51,.63-.81,.85-1.41,.83-3.33-.11-4.74l-7.5-11.48-1.83-2.79c1.52-2.92,2.89-6.03,4.06-9.25,1.58-4.34,2.77-8.76,3.58-13.17,.31-1.68,1.48-2.98,2.99-3.23l14.06-2.42c1.92-.35,3.3-2.27,3.16-4.46l-.81-13.93-.24-3.99c-.12-2.18-1.68-3.92-3.61-4l-13.57-.66c-1.57-.06-2.94-1.23-3.36-2.92-1.34-5.02-3.14-9.87-5.39-14.44-.17-.42-.36-.77-.56-1.16-.07-.12-.12-.26-.17-.4-.62-1.53-.35-3.32,.66-4.56l10.81-13.43c.13-.14,.24-.32,.33-.48,.92-1.55,.82-3.68-.29-5.12l-10.58-13.54c-1.28-1.63-3.44-1.89-5.01-.6l-14.15,11.87c-1.19,1.02-2.81,1.08-4.08,.2-2.81-1.92-5.8-3.63-8.95-5.09-1.67-.78-3.35-1.47-5.05-2.08-1.37-.5-2.38-1.83-2.59-3.44l-2.58-18.97c-.28-2.09-1.94-3.61-3.82-3.47l-15.93,1.21c-1.93,.14-3.46,1.88-3.55,4.1l-.55,14.54c-.07,1.95-1.3,3.57-2.98,3.96-6.61,1.45-12.97,4.08-18.87,7.74-1.38,.89-3.13,.66-4.32-.57l-10.7-11.03c-1.43-1.48-3.63-1.49-5.09-.05l-11.94,11.92c-1.44,1.43-1.65,3.88-.52,5.58l.43,.67,8.72,13.33c.94,1.43,.98,3.32,.14,4.82v.02c-2.03,3.59-3.81,7.43-5.3,11.52-.79,2.18-1.47,4.37-2.08,6.59-.4,1.55-1.55,2.68-2.96,2.93l-14.27,2.46c-1.95,.33-3.36,2.32-3.22,4.52l1.06,17.95c.03,.51,.16,1,.32,1.43,.56,1.41,1.81,2.42,3.24,2.5l10.84,.5c1.33,.08,2.53,.95,3.13,2.25,.15,.34,.28,.72,.35,1.11,1.69,9.58,5.07,18.66,9.91,26.76,.84,1.36,.82,3.16,.06,4.54-.11,.2-.24,.38-.39,.56l-8.76,10.87c-1.27,1.57-1.29,3.98-.04,5.59l.24,.32,10.3,13.21c1.31,1.65,3.5,1.9,5.07,.58Zm68.99-107.6c2.03,1.8,4,3.89,5.86,6.29,3.54,4.58,6.79,13.33,7.15,19.41,.04,.65,.07,1.29,.09,1.94,1.09,39.16-39.2,57.66-62.6,28.02-3.05-3.88-5.84-10.61-6.97-16.44-.24-1.35-.43-2.66-.48-3.83-.3-5.53,.21-10.66,1.4-15.34,6.77-26.65,35.12-37.98,55.55-20.06Z"></path><path fill="#dceaff" d="M861.52,232.26l11.66-7.14c.98-.58,2.16-.5,3.06,.21,1.15,.92,2.34,1.79,3.58,2.61,2.29,1.53,4.63,2.84,7.02,3.89,1.12,.5,1.86,1.69,1.86,3.04l.16,15.67c0,1.67,1.16,3.07,2.65,3.19l12.63,1.08c1.43,.12,2.7-.99,2.97-2.58l2.33-14.19c.2-1.39,1.2-2.44,2.47-2.63,5.35-.77,10.58-2.5,15.5-5.14,1.19-.63,2.64-.26,3.47,.88l4.93,6.78c.95,1.28,2.6,1.58,3.85,.66l10.49-7.84c.22-.16,.41-.33,.57-.55,.8-.99,.97-2.48,.38-3.7l-4.71-9.85-1.15-2.4c1.47-2.08,2.84-4.32,4.06-6.68,1.65-3.17,3.01-6.46,4.07-9.78,.41-1.27,1.44-2.13,2.64-2.14l11.16-.13c1.53-.03,2.79-1.35,2.89-3.07l.73-10.92,.2-3.13c.12-1.71-.93-3.25-2.41-3.56l-10.48-2.21c-1.22-.24-2.16-1.33-2.33-2.69-.55-4.07-1.48-8.06-2.78-11.89-.09-.34-.2-.65-.32-.97-.05-.11-.07-.22-.1-.33-.33-1.26,.05-2.62,.96-3.46l9.71-9.08c.12-.09,.21-.22,.31-.33,.87-1.09,1-2.75,.27-4.01l-6.9-11.84c-.83-1.43-2.49-1.9-3.83-1.09l-12.15,7.46c-1.02,.65-2.29,.49-3.19-.36-2-1.84-4.15-3.54-6.46-5.07-1.22-.81-2.46-1.56-3.72-2.24-1.02-.56-1.67-1.72-1.68-3l-.15-15.06c-.01-1.66-1.15-3.04-2.63-3.17l-12.5-1.05c-1.51-.13-2.87,1.03-3.15,2.74l-1.84,11.22c-.25,1.51-1.36,2.61-2.7,2.7-5.28,.3-10.47,1.55-15.41,3.66-1.16,.52-2.5,.12-3.3-.98l-7.24-9.9c-.97-1.33-2.67-1.61-3.95-.67l-10.44,7.77c-1.26,.93-1.66,2.81-.94,4.27l.27,.58,5.48,11.44c.59,1.23,.44,2.7-.36,3.76h0c-1.92,2.55-3.68,5.31-5.23,8.3-.83,1.59-1.57,3.21-2.26,4.86-.46,1.15-1.47,1.89-2.59,1.91l-11.33,.13c-1.55,.01-2.83,1.38-2.94,3.11l-.93,14.07c-.02,.4,.02,.79,.11,1.15,.3,1.17,1.17,2.11,2.27,2.35l8.38,1.74c1.02,.23,1.87,1.05,2.21,2.14,.09,.29,.15,.59,.17,.91,.38,7.66,2.12,15.13,5.09,22.03,.52,1.16,.33,2.56-.39,3.53-.11,.14-.22,.27-.35,.39l-7.87,7.35c-1.14,1.06-1.39,2.93-.58,4.34l.16,.28,6.71,11.55c.86,1.45,2.53,1.91,3.88,1.08Zm64.1-74.98c1.4,1.66,2.73,3.53,3.94,5.62,2.3,4,3.97,11.2,3.66,15.97-.03,.51-.07,1.01-.12,1.52-2.97,30.56-36.08,39.9-51.37,13.96-1.99-3.4-3.5-8.98-3.81-13.64-.06-1.08-.07-2.12,0-3.04,.31-4.33,1.2-8.25,2.58-11.74,7.86-19.86,30.99-25.12,45.11-8.65Z"></path><path fill="#dceaff" d="M1383.9,818.29l14.39-8.82c1.2-.72,2.66-.62,3.78,.27,1.42,1.13,2.89,2.21,4.42,3.22,2.83,1.88,5.72,3.5,8.67,4.81,1.38,.61,2.29,2.09,2.3,3.75l.19,19.35c0,2.06,1.43,3.79,3.28,3.94l15.6,1.33c1.77,.15,3.33-1.23,3.67-3.18l2.87-17.52c.25-1.71,1.49-3.02,3.05-3.24,6.61-.95,13.07-3.09,19.13-6.35,1.46-.78,3.25-.32,4.28,1.09l6.09,8.37c1.17,1.57,3.21,1.95,4.75,.82l12.95-9.68c.27-.2,.5-.41,.7-.68,.99-1.22,1.2-3.07,.47-4.56l-5.81-12.17-1.42-2.96c1.81-2.57,3.5-5.33,5.01-8.24,2.04-3.92,3.72-7.98,5.02-12.08,.5-1.56,1.78-2.63,3.26-2.64l13.78-.16c1.88-.04,3.44-1.67,3.57-3.79l.9-13.48,.25-3.87c.14-2.11-1.14-4.02-2.98-4.4l-12.94-2.73c-1.5-.3-2.67-1.64-2.87-3.32-.68-5.02-1.83-9.96-3.43-14.68-.11-.42-.25-.8-.39-1.2-.06-.13-.09-.27-.12-.41-.41-1.56,.07-3.24,1.19-4.27l11.99-11.22c.14-.12,.26-.27,.38-.41,1.07-1.35,1.23-3.4,.34-4.95l-8.52-14.62c-1.03-1.76-3.07-2.35-4.73-1.34l-15.01,9.21c-1.26,.8-2.82,.61-3.94-.44-2.47-2.27-5.12-4.37-7.97-6.27-1.51-1-3.04-1.93-4.59-2.77-1.26-.69-2.07-2.12-2.07-3.7l-.19-18.59c-.01-2.05-1.42-3.76-3.25-3.92l-15.43-1.29c-1.86-.16-3.54,1.28-3.9,3.39l-2.28,13.86c-.3,1.86-1.68,3.22-3.33,3.34-6.52,.38-12.93,1.92-19.03,4.52-1.43,.64-3.08,.15-4.07-1.21l-8.93-12.23c-1.2-1.64-3.3-1.98-4.87-.83l-12.88,9.59c-1.55,1.15-2.05,3.46-1.17,5.27l.33,.71,6.76,14.13c.73,1.51,.54,3.34-.45,4.65v.02c-2.38,3.13-4.55,6.54-6.47,10.23-1.02,1.97-1.94,3.96-2.79,6-.57,1.42-1.81,2.33-3.19,2.35l-13.99,.16c-1.91,.02-3.5,1.7-3.63,3.84l-1.14,17.38c-.03,.5,.03,.98,.13,1.42,.37,1.44,1.44,2.6,2.8,2.9l10.34,2.15c1.26,.28,2.31,1.3,2.73,2.64,.11,.35,.18,.73,.2,1.12,.47,9.45,2.61,18.68,6.28,27.2,.64,1.43,.41,3.16-.49,4.36-.13,.17-.28,.33-.44,.48l-9.72,9.07c-1.41,1.31-1.72,3.62-.72,5.36l.2,.34,8.29,14.26c1.06,1.78,3.12,2.36,4.79,1.34Zm79.14-92.58c1.73,2.04,3.37,4.35,4.87,6.94,2.84,4.94,4.91,13.83,4.52,19.72-.04,.63-.09,1.25-.15,1.87-3.67,37.73-44.55,49.27-63.42,17.23-2.46-4.19-4.33-11.08-4.71-16.84-.07-1.34-.09-2.61,0-3.75,.38-5.35,1.49-10.19,3.19-14.5,9.71-24.52,38.27-31.02,55.7-10.68Z"></path><path fill="#a9c2ff" d="M1469.04,649.59l7.7-4.72c.64-.39,1.43-.33,2.02,.14,.76,.61,1.55,1.18,2.36,1.72,1.52,1.01,3.06,1.87,4.64,2.57,.74,.33,1.23,1.12,1.23,2.01l.1,10.35c0,1.1,.76,2.03,1.75,2.11l8.34,.71c.95,.08,1.78-.66,1.96-1.7l1.54-9.37c.13-.91,.8-1.61,1.63-1.73,3.53-.51,6.99-1.65,10.24-3.39,.78-.42,1.74-.17,2.29,.58l3.26,4.48c.63,.84,1.72,1.04,2.54,.44l6.93-5.18c.14-.11,.27-.22,.38-.36,.53-.65,.64-1.64,.25-2.44l-3.11-6.51-.76-1.58c.97-1.37,1.87-2.85,2.68-4.41,1.09-2.1,1.99-4.27,2.69-6.46,.27-.84,.95-1.41,1.74-1.41l7.37-.08c1.01-.02,1.84-.89,1.91-2.03l.48-7.21,.13-2.07c.08-1.13-.61-2.15-1.59-2.35l-6.92-1.46c-.8-.16-1.43-.88-1.54-1.78-.37-2.69-.98-5.33-1.84-7.85-.06-.23-.13-.43-.21-.64-.03-.07-.05-.14-.06-.22-.22-.84,.04-1.73,.63-2.29l6.41-6c.08-.06,.14-.14,.2-.22,.57-.72,.66-1.82,.18-2.65l-4.56-7.82c-.55-.94-1.64-1.25-2.53-.72l-8.03,4.93c-.68,.43-1.51,.32-2.11-.24-1.32-1.22-2.74-2.34-4.26-3.35-.81-.54-1.63-1.03-2.45-1.48-.67-.37-1.11-1.14-1.11-1.98l-.1-9.95c0-1.1-.76-2.01-1.74-2.1l-8.26-.69c-1-.09-1.9,.68-2.08,1.81l-1.22,7.41c-.16,.99-.9,1.72-1.78,1.79-3.49,.2-6.92,1.03-10.18,2.42-.77,.34-1.65,.08-2.18-.65l-4.78-6.54c-.64-.88-1.77-1.06-2.61-.44l-6.89,5.13c-.83,.61-1.1,1.85-.62,2.82l.18,.38,3.62,7.56c.39,.81,.29,1.79-.24,2.49h0c-1.27,1.68-2.43,3.51-3.46,5.48-.55,1.05-1.04,2.12-1.49,3.21-.31,.76-.97,1.25-1.71,1.26l-7.48,.09c-1.02,0-1.87,.91-1.94,2.05l-.61,9.3c-.02,.27,.02,.52,.07,.76,.2,.77,.77,1.39,1.5,1.55l5.53,1.15c.68,.15,1.23,.7,1.46,1.41,.06,.19,.1,.39,.11,.6,.25,5.06,1.4,9.99,3.36,14.55,.34,.77,.22,1.69-.26,2.33-.07,.09-.15,.18-.23,.26l-5.2,4.85c-.75,.7-.92,1.93-.38,2.87l.1,.18,4.44,7.63c.57,.95,1.67,1.26,2.57,.72Zm42.34-49.53c.93,1.09,1.8,2.33,2.6,3.71,1.52,2.64,2.62,7.4,2.42,10.55-.02,.34-.05,.67-.08,1-1.96,20.18-23.83,26.36-33.93,9.22-1.32-2.24-2.31-5.93-2.52-9.01-.04-.72-.05-1.4,0-2.01,.2-2.86,.8-5.45,1.71-7.75,5.19-13.12,20.47-16.59,29.8-5.71Z"></path><path fill="#dceaff" d="M187.45,651.36l8.44-5.17c.71-.42,1.56-.36,2.22,.15,.83,.66,1.7,1.29,2.59,1.89,1.66,1.11,3.36,2.05,5.09,2.82,.81,.36,1.34,1.22,1.35,2.2l.11,11.35c0,1.21,.84,2.22,1.92,2.31l9.15,.78c1.04,.09,1.95-.72,2.15-1.87l1.69-10.27c.15-1,.87-1.77,1.79-1.9,3.88-.56,7.67-1.81,11.22-3.72,.86-.46,1.91-.19,2.51,.64l3.57,4.91c.69,.92,1.88,1.14,2.79,.48l7.6-5.68c.16-.12,.3-.24,.41-.4,.58-.71,.7-1.8,.27-2.68l-3.41-7.14-.83-1.74c1.06-1.51,2.05-3.13,2.94-4.83,1.2-2.3,2.18-4.68,2.95-7.09,.29-.92,1.05-1.54,1.91-1.55l8.08-.09c1.1-.02,2.02-.98,2.09-2.22l.53-7.91,.15-2.27c.08-1.24-.67-2.36-1.75-2.58l-7.59-1.6c-.88-.17-1.57-.96-1.69-1.95-.4-2.95-1.07-5.84-2.01-8.61-.06-.25-.15-.47-.23-.7-.03-.08-.05-.16-.07-.24-.24-.92,.04-1.9,.7-2.51l7.03-6.58c.08-.07,.16-.16,.22-.24,.63-.79,.72-1.99,.2-2.91l-5-8.58c-.6-1.03-1.8-1.38-2.78-.79l-8.8,5.4c-.74,.47-1.66,.36-2.31-.26-1.45-1.33-3.01-2.56-4.68-3.68-.89-.59-1.78-1.13-2.69-1.63-.74-.41-1.21-1.25-1.22-2.17l-.11-10.91c0-1.2-.83-2.2-1.9-2.3l-9.05-.76c-1.09-.1-2.08,.75-2.28,1.99l-1.34,8.13c-.18,1.09-.98,1.89-1.95,1.96-3.82,.22-7.59,1.12-11.16,2.65-.84,.38-1.81,.09-2.39-.71l-5.24-7.17c-.7-.96-1.94-1.16-2.86-.49l-7.56,5.63c-.91,.67-1.2,2.03-.68,3.09l.2,.42,3.97,8.29c.43,.89,.32,1.96-.26,2.73h0c-1.39,1.85-2.66,3.85-3.79,6.01-.6,1.15-1.14,2.32-1.63,3.52-.34,.83-1.06,1.37-1.87,1.38l-8.21,.09c-1.12,0-2.05,1-2.13,2.25l-.67,10.19c-.02,.29,.02,.57,.08,.83,.22,.85,.85,1.53,1.64,1.7l6.07,1.26c.74,.16,1.35,.76,1.6,1.55,.06,.21,.11,.43,.12,.66,.28,5.54,1.53,10.96,3.69,15.95,.38,.84,.24,1.85-.29,2.56-.08,.1-.16,.19-.26,.28l-5.7,5.32c-.83,.77-1.01,2.12-.42,3.14l.11,.2,4.86,8.36c.62,1.05,1.83,1.38,2.81,.79Zm46.42-54.3c1.02,1.2,1.98,2.55,2.85,4.07,1.67,2.9,2.88,8.11,2.65,11.57-.02,.37-.05,.73-.08,1.1-2.15,22.13-26.13,28.9-37.2,10.11-1.44-2.46-2.54-6.5-2.76-9.88-.04-.78-.05-1.53,0-2.2,.22-3.14,.87-5.98,1.87-8.5,5.7-14.38,22.45-18.2,32.67-6.26Z"></path><path fill="#dceaff" d="M957.49,491.5l21.7-17.56c1.82-1.44,4.2-1.61,6.16-.44,2.5,1.51,5.07,2.91,7.72,4.2,4.92,2.4,9.88,4.35,14.88,5.79,2.34,.68,4.08,2.85,4.38,5.55l3.77,31.25c.38,3.34,2.99,5.8,6,5.62l25.46-1.42c2.89-.17,5.17-2.75,5.36-5.99l1.51-28.99c.09-2.82,1.87-5.22,4.36-5.94,10.51-3.05,20.58-7.99,29.81-14.64,2.23-1.6,5.21-1.26,7.12,.78l11.35,12.14c2.17,2.28,5.55,2.42,7.84,.24l19.22-18.63c.4-.38,.74-.78,1.02-1.26,1.38-2.2,1.4-5.24-.06-7.49l-11.58-18.34-2.83-4.46c2.47-4.57,4.71-9.43,6.63-14.48,2.59-6.8,4.58-13.76,5.96-20.69,.53-2.64,2.41-4.67,4.8-5.01l22.26-3.41c3.04-.49,5.26-3.49,5.09-6.95l-.95-22.02-.29-6.31c-.15-3.44-2.57-6.24-5.6-6.43l-21.42-1.45c-2.48-.14-4.61-2.04-5.24-4.71-2-7.97-4.73-15.68-8.17-22.96-.26-.66-.54-1.23-.85-1.85-.11-.2-.19-.42-.27-.63-.94-2.43-.47-5.25,1.15-7.18l17.38-20.89c.21-.22,.38-.5,.54-.74,1.5-2.43,1.38-5.78-.34-8.09l-16.39-21.7c-1.98-2.62-5.38-3.09-7.89-1.09l-22.62,18.33c-1.9,1.58-4.46,1.63-6.45,.19-4.39-3.11-9.07-5.9-14.01-8.31-2.62-1.28-5.26-2.42-7.92-3.43-2.15-.84-3.72-2.96-4.02-5.51l-3.64-30.03c-.39-3.31-2.97-5.75-5.95-5.59l-25.19,1.44c-3.04,.16-5.5,2.87-5.69,6.37l-1.2,22.94c-.16,3.08-2.13,5.59-4.79,6.16-10.47,2.1-20.57,6.06-29.97,11.66-2.2,1.36-4.96,.95-6.81-1.03l-16.64-17.73c-2.23-2.38-5.69-2.45-8.03-.23l-19.12,18.46c-2.3,2.21-2.7,6.07-.94,8.79l.67,1.08,13.46,21.31c1.44,2.28,1.48,5.27,.11,7.62v.03c-3.29,5.61-6.19,11.62-8.63,18.03-1.3,3.42-2.42,6.85-3.44,10.34-.67,2.43-2.52,4.19-4.74,4.54l-22.6,3.46c-3.09,.46-5.35,3.56-5.19,7.04l1.26,28.37c.04,.81,.22,1.58,.47,2.27,.86,2.25,2.8,3.88,5.05,4.04l17.11,1.11c2.09,.16,3.96,1.58,4.89,3.64,.24,.55,.42,1.14,.53,1.77,2.45,15.18,7.57,29.62,15.03,42.55,1.3,2.17,1.23,5.01,0,7.17-.18,.31-.39,.6-.62,.88l-14.09,16.9c-2.04,2.45-2.13,6.24-.2,8.83l.38,.51,15.96,21.16c2.04,2.64,5.47,3.1,7.99,1.07Zm111.43-167.84c3.17,2.91,6.23,6.27,9.11,10.11,5.48,7.33,10.41,21.25,10.84,30.85,.05,1.03,.08,2.04,.1,3.06,.82,61.86-63.23,89.88-99.49,42.39-4.73-6.22-8.98-16.93-10.63-26.16-.35-2.15-.61-4.21-.67-6.06-.34-8.74,.58-16.82,2.56-24.17,11.32-41.88,56.34-58.93,88.18-30.02Z"></path><path fill="#dceaff" d="M284.13,439.43c6.79-38.96,64.57-31.52,64.57-31.52,0,0,42.87,63.84,54.24,64.54,11.37,.7-27.23-62.68-27.23-62.68,21.68-4.12,79.19,21.75,79.19,21.75,0,0,1.31,78.34,12.48,75.85,11.17-2.49-4.29-69.3-4.29-69.3,21.57,5.5,43.02,31.81,43.02,31.81,27.46,43.45-23.29,81.08-23.29,81.08,0,0,.97,27.14,17.68,57.03h0s3.69,5.47,7.69,14.95l-5.76,.46c-.58-1.71-1.2-3.36-1.88-4.93,0-.01,0-.02-.01-.03,0-.02-.02-.05-.03-.07-.46-.98-1.11-2.36-1.93-4.05h0c-2-3.77-3.37-6.56-4.25-8.57v-.02c-6.04-11.81-14.62-27.15-19.89-30.09,0,0,.57-1.06,1.05-3.09-.33,.98-.68,2.01-1.05,3.09-8.38,24.68-57.43,32.56-85.29,28.36-27.86-4.2-16.43-13.91-2.52-29.3,13.91-15.39,45.13-14.09,53.94-20.39,8.81-6.3-4.92-10.82-23.13-7.77-18.21,3.04-26.09,24.48-55.47,30-29.38,5.53-55.81-55.61-55.81-55.61,20.87,5.55,56.7-10.09,57.62-18.17,.92-8.08-53.26-2.99-61.86-4.71-8.6-1.72-24.57-19.67-17.78-58.62Z"></path><path fill="#6d9ae5" d="M749.55,587.63l-30.56,411s-3.2,24.91,13.18,24.96c26.94,.07,134.1,0,134.1,0,0,0-20.28-5.19-20.03-16.86,.29-13.75,35.72-422.99,35.72-422.99l-132.41,3.89Z"></path><path fill="#a9c2ff" d="M874.96,1016.13c-5.3,.02-107.65,.38-133.88,0-11.43-.16-13.44-11.5-13.53-18.84-.05-3.52,.35-6.12,.35-6.12l.79-10.68,2.03-27.23,1.79-24.05,2.3-30.91,1.94-26.09,21.72-292.04,132.41-3.89s-14.92,171.26-25.48,295.93c-1.18,13.89-2.3,27.21-3.34,39.64-.34,3.97-.66,7.85-.97,11.63-.98,11.79-1.87,22.63-2.65,32.19-.41,5.04-.79,9.72-1.13,14.02-1.35,16.81-2.14,27.55-2.15,29.59,0,1.19,.08,2.3,.26,3.33,2.17,13.1,17.57,13.53,19.56,13.53Z"></path><polygon fill="#a9c2ff" points="427.99 363.98 502.43 702.18 512.63 748.5 547.3 906.02 1191.48 906.02 1063.68 363.98 427.99 363.98"></polygon><polygon fill="#6d9ae5" points="427.98 363.98 417.67 367.87 533.58 917.79 547.3 906.02 427.98 363.98"></polygon><polygon fill="#6d9ae5" points="533.58 917.79 1173.8 917.79 1191.48 906.02 547.3 906.02 533.58 917.79"></polygon><rect fill="#a9c2ff" transform="translate(1655.44 2040.03) rotate(180)" height="7.45" width="138.62" y="1016.29" x="758.41"></rect><polygon opacity=".7" fill="#6d9ae5" points="861.79 917.78 861.07 923.48 730.71 953.26 732.5 929.21 733.35 917.78 861.79 917.78"></polygon><path fill="#8eaff1" d="M874.96,1016.13c-5.3,.02-107.65,.38-133.88,0-11.43-.16-13.44-11.5-13.53-18.84l129.75-27.61c-1.35,16.81-2.14,27.55-2.15,29.59,0,1.19,.08,2.3,.26,3.33,2.17,13.1,17.57,13.53,19.56,13.53Z"></path><polygon fill="#8eaff1" points="830.28 796.29 547.3 906.02 512.63 748.5 830.28 796.29"></polygon><polygon fill="#cedfff" points="427.98 363.98 1063.68 363.98 1166.04 799.61 523.91 799.61 427.98 363.98"></polygon><polygon opacity=".5" fill="#a9c2ff" points="453.6 379.45 544.92 776.29 1135.26 776.29 1042.93 384.02 453.6 379.45"></polygon><rect fill="#fc7600" height="159.34" width="223.29" y="616.93" x="667.3"></rect><rect fill="#ff912b" height="159.33" width="223.29" y="616.94" x="778.95"></rect><polygon fill="#ef6500" points="778.94 640.47 731.88 693.7 667.43 693.7 667.43 616.93 778.94 616.93 778.94 640.47"></polygon><polygon fill="#ff912b" points="667.3 616.93 617.1 671.72 728.81 671.72 778.94 616.93 667.3 616.93"></polygon><polygon fill="#fc7600" points="1002.24 622.58 778.94 616.94 778.94 637.12 778.94 637.12 778.94 640.42 820.46 691.91 1002.23 691.91 1002.23 640.66 1001.08 639.13 1002.24 639.13 1002.24 622.58"></polygon><polygon fill="#ff912b" points="778.94 616.93 823.13 671.72 1043.46 671.72 1002.24 616.93 778.94 616.93"></polygon><path fill="#2a3967" d="M389.85,596.77s1.55-19.14-17.35-19.14c0,0,5.73,1.76,8.69,5.27,0,0-12.06-8.01-25.18,4.3-13.12,12.3-4.97,43.15-8.96,49.01-3.99,5.86-19.53,7.03-17.63,25.97,1.9,18.94,49.32,42.66,46.27,58.33,0,0,18.58-30.89,5.29-44.99,0,0,6.48,6.9,7.14,15.1,0,0,1.76-16.01-7.25-21.13-7.97-4.53-14.5-21.11-13.81-24.07,.69-2.96,22.79-48.65,22.79-48.65Z"></path><path fill="#ffae73" d="M371.24,688.65s14.12,66.08,27.99,79.29c8.33,7.94,33.11,26.16,33.11,26.16l-10.31,4.23s-34.37-13.13-42.06-23.36c-7.69-10.23-28.76-61.5-28.76-61.5l20.03-24.83Z"></path><g><path fill="#ff912b" d="M452.53,818.25l-3.32-9.3c-3.56-9.97-12.11-16.49-21.62-16.49h-61.23v231.52h253.27v-187.58h-143.32c-10.46,0-19.87-7.18-23.79-18.15Z"></path><g><path fill="#fff" d="M404.57,933.25v-16.69l51.76-25.64v17.05l-36.14,16.81,36.14,16.81v17.29l-51.76-25.64Z"></path><path fill="#fff" d="M510.12,870.96h13.79l-47.37,111.99h-13.79l47.37-111.99Z"></path><path fill="#fff" d="M581.44,916.56v16.69l-51.76,25.64v-17.05l36.14-16.81-36.14-16.81v-17.29l51.76,25.64Z"></path></g></g><path fill="#26529f" d="M238.5,804.74c.12,.25,.26,.51,.39,.78,3.09,6.07,10.18,20.96,17.99,37.25,3.69,7.73,7.56,15.78,11.23,23.34,6.32,13.06,12.07,24.7,15.43,30.85,3.41,6.25,5.92,10.64,6.94,12.4h0c.31,.55,.37,1.19,.33,1.82-.36,5.51-.26,10.99,.22,16.38,4.71,53,36.31,81.4,36.31,81.4l9.4,1.57s-13.3-55.71-17.21-87.2c-.66-5.34-.95-9.66-.72-12.49,.69-8.21-.59-20.25-3.03-34.08-4.34-24.58-12.3-54.75-19.21-78.89-.44-1.54-13.65-55.6-13.65-55.6-11.09,10.96-51.54,15.49-51.54,15.49,0,0-6.86,18.86,7.12,46.98Z"></path><path fill="#1e3865" d="M356.47,1023.98h-39.21s-.94-6.76,1.11-11.89c1.96-4.92,4.76-5.08,.36-12.79,2.49,2.9,10.5,4.1,16.17,3.24,.69,1.27,4.48,9.82,6.8,11.7,2.56,2.08,13.99,1.34,14.78,9.73Z"></path><path fill="#1e3865" d="M238.5,804.74c.12,.25,.26,.51,.39,.78,3.09,6.07,19.8,40.99,27.61,57.28-9.05-42.1-2.76-84.2-2.76-84.2l-25.25,26.15Z"></path><path fill="#2a3967" d="M384.5,594.08c.26-1.16-22.4,11.58-23.54,13.02-10.62,13.33-7.59,30.72-1.52,30.89,3.9,.11,3.14,7.44,3.14,7.44l43.43-20.78s-5.23-34.49-21.52-30.56Z"></path><path fill="#ff912b" d="M369.91,678.72s6.61,14.93,5.78,27.05c0,0-7.97,14.23-28.64,17.83,0,0,17.77-44.89,22.85-44.88Z"></path><path fill="#26529f" d="M269.07,761.06l.13-8.29c-14.61,2.08-50.38-19.75-50.38-19.75,0,0-15.29,11.5-17.38,44.34-1.02,16.03-7.48,83.81-8.2,104.06-.26,7.34-.35,12.57-.38,14.66,0,.01,0,.02,0,.02,0,.64-.27,1.2-.62,1.71-3.02,4.35-5.65,8.95-7.92,13.73-22.3,46.92-10.64,110.67-10.64,110.67l5.18-1.49s18.85-66.09,31.17-94.67c2.09-4.85,3.99-8.62,5.58-10.8,4.63-6.36,9.52-17.17,14.33-30.18,9.1-24.59,39.11-123.99,39.11-123.99Z"></path><path fill="#1e3865" d="M204.88,1023.98h-39.21s-.94-6.76,1.11-11.89c1.96-4.92,5.04-7.16,4.3-13.11,2.49,2.9,6.55,6.15,12.22,5.29,.69,1.27,4.48,8.09,6.8,9.97,2.56,2.08,13.99,1.34,14.78,9.73Z"></path><path fill="#ff912b" d="M344.41,733.13c-5.27,1.02,.86,5.75-6.38,6.64-10.31,1.27-20.96,2.14-26.53,4.66-2.03,.92-3.39,2.05-3.82,3.5-2.42,8.22-17.73,22.35-17.73,22.35-68.28-3.51-72.68-37.93-72.68-37.93,44.31-48.67,82.01-75.21,113.17-78.49,7.58-.8,17.8,.27,22.6,2.69,10.9,5.49,16.87,22.18,16.87,22.18,0,0-5.49,50.54-25.5,54.4Z"></path><path fill="#fc7600" d="M338.02,739.77c-10.31,1.27-20.96,2.14-26.53,4.66-2.28-38.51,13.79-67.48,13.79-67.48,0,0,10.48,48.25,12.74,62.82Z"></path><path fill="#ffae73" d="M346.92,670.43s-25.93-1.6-30.54,16.81c-4.61,18.41,8.64,91.9,11.5,99.48,5.2,13.81,30.51,53.22,30.51,53.22l9.31-3.21s-16.88-60.21-20.64-66.17c-5.91-9.35,7.63-92.13-.14-100.14Z"></path><path fill="#ffae73" d="M367.7,836.73s.48,4.67,2.22,7.08,6.82,8.24,6.91,11.66c0,0-.26,1.52-1.34,1.24-1.09-.28-4.87-4.51-6.81-4.21,0,0,1.03,6.84,2.06,8.77,1.03,1.93,.21,10.1-.41,11.76-.62,1.66-8.18-8.93-11.29-13.66-3.11-4.73-.05-23.92-.05-23.92l8.71,1.28Z"></path><path fill="#ff912b" d="M311.27,711.86c.07,.43,24.54,5.09,39.84-3.69,0,0,12.79-45.3-5.49-43.13-18.27,2.17-29.09,8.68-29.55,18.57-.46,9.89-4.8,28.26-4.8,28.26Z"></path><path fill="#ffae73" d="M352.46,659.72c1.95,6.9,8.45,26.58,17.45,19.01-.31-1.47,1.59-5.74,3.82-10.07,2.85-5.54,6.25-11.2,6.25-11.2l-14.68-14.54-.88-.87c-3.84,7.58-7.61,11.23-10.92,14.02-1,.85-1.43,2.31-1.05,3.67Z"></path><path fill="#f99352" d="M379.97,657.45s-3.39,5.65-6.24,11.2c-9.12-6.36-9.13-19.13-8.43-25.75l14.67,14.55Z"></path><path fill="#ffae73" d="M380.38,664.74s-22.15-13.94-14.26-29.4c7.89-15.47,10.34-27.68,24.81-19.44,14.47,8.25,14.19,15.92,12.67,21.81-1.52,5.89-17.26,30.26-23.22,27.03Z"></path><path fill="#2a3967" d="M407.34,628.69c-1.01-6.87-4.1-7.52-6.25-7.06-8.18-15.3-21.54-9.33-21.54-9.33-7.14,10.13-17.46,11.86-17.46,11.86,0,0,2.57,5.41,13.16,8.76,3.23,1.02,6.91,.4,10.45-.94-7.35,4.63-15.03,6.41-15.03,6.41,13.95,1.44,27.23-12.98,28.61-14.53,.64,2.24,1.77,6.92,1.1,10.34-.92,4.65-4.57,13.07-2.34,14.16,0,0,10.83-9.36,9.31-19.66Z"></path><path fill="#ffae73" d="M436.39,794.13s-6.18,5.24-1.52,8.67c4.66,3.43,12.97,4.35,13.01,2.11,.11-7.55-3.21-12.92-11.49-10.77Z"></path><rect fill="#2d3554" ry="2.13" rx="2.13" height="4.26" width="1591.68" y="1023.74" x="0"></rect><path fill="#ff912b" d="M525.85,506.37c-.72-3.36,.58-5.99,3.33-6,2.73,0,5.14,2.59,5.86,5.98,.72,3.36-.57,5.99-3.33,6-2.76,0-5.14-2.59-5.86-5.98Zm6.86-.01c-.45-2.1-1.71-3.69-3.07-3.68-1.36,0-1.92,1.54-1.46,3.69,.45,2.12,1.69,3.69,3.07,3.68,1.38,0,1.91-1.56,1.46-3.69Z"></path><path fill="#8eaff1" d="M486.1,419.37l-1.7,.5-.92-2.08,2.76-1h1.55l2.5,11.66h-2.25l-1.94-9.07Z"></path><path fill="#8eaff1" d="M494.17,422.64c-.72-3.36,.58-5.99,3.33-6,2.73,0,5.14,2.59,5.86,5.98,.72,3.36-.57,5.99-3.33,6-2.76,0-5.14-2.59-5.86-5.98Zm6.86-.01c-.45-2.1-1.71-3.69-3.07-3.68-1.36,0-1.92,1.54-1.46,3.69,.45,2.12,1.69,3.69,3.07,3.68,1.37,0,1.91-1.56,1.46-3.69Z"></path><path fill="#8eaff1" d="M675.32,418.98l-1.7,.5-.92-2.08,2.76-1h1.55l2.5,11.66h-2.25l-1.94-9.07Z"></path><path fill="#8eaff1" d="M683.39,422.26c-.72-3.36,.58-5.99,3.33-6,2.73,0,5.14,2.59,5.86,5.98,.72,3.36-.57,5.99-3.33,6-2.76,0-5.14-2.59-5.86-5.98Zm6.86-.01c-.45-2.1-1.71-3.69-3.07-3.68-1.36,0-1.92,1.54-1.46,3.69,.45,2.12,1.69,3.69,3.07,3.68,1.37,0,1.91-1.56,1.46-3.69Z"></path><path fill="#8eaff1" d="M697.14,422.23c-.72-3.36,.58-5.99,3.33-6,2.73,0,5.14,2.59,5.86,5.98,.72,3.36-.57,5.99-3.33,6-2.76,0-5.14-2.59-5.86-5.98Zm6.86-.01c-.45-2.1-1.71-3.69-3.07-3.68-1.36,0-1.92,1.54-1.46,3.69,.45,2.12,1.69,3.69,3.07,3.68,1.38,0,1.91-1.56,1.46-3.69Z"></path><path fill="#8eaff1" d="M767.46,422.26c-.72-3.36,.58-5.99,3.33-6,2.73,0,5.14,2.59,5.86,5.98,.72,3.36-.57,5.99-3.33,6-2.76,0-5.14-2.59-5.86-5.98Zm6.86-.01c-.45-2.1-1.71-3.69-3.07-3.68-1.36,0-1.92,1.54-1.46,3.69,.45,2.12,1.69,3.69,3.07,3.68,1.37,0,1.91-1.56,1.46-3.69Z"></path><path fill="#8eaff1" d="M781.21,422.23c-.72-3.36,.58-5.99,3.33-6,2.73,0,5.14,2.59,5.86,5.98,.72,3.36-.57,5.99-3.33,6-2.76,0-5.14-2.59-5.86-5.98Zm6.86-.01c-.45-2.1-1.71-3.69-3.07-3.68-1.36,0-1.92,1.54-1.46,3.69,.45,2.12,1.69,3.69,3.07,3.68,1.37,0,1.91-1.56,1.46-3.69Z"></path><path fill="#8eaff1" d="M794.96,422.2c-.72-3.36,.58-5.99,3.33-6,2.73,0,5.14,2.59,5.86,5.98,.72,3.36-.57,5.99-3.33,6-2.76,0-5.14-2.59-5.86-5.98Zm6.86-.01c-.45-2.1-1.71-3.69-3.07-3.68-1.36,0-1.92,1.54-1.46,3.69,.45,2.12,1.69,3.69,3.07,3.68,1.38,0,1.91-1.56,1.46-3.69Z"></path><path fill="#8eaff1" d="M890.54,421.94c-.72-3.36,.58-5.99,3.33-6,2.73,0,5.14,2.59,5.87,5.98,.72,3.36-.57,5.99-3.33,6s-5.14-2.59-5.86-5.98Zm6.86-.01c-.45-2.1-1.71-3.69-3.07-3.68-1.36,0-1.92,1.54-1.46,3.69,.45,2.12,1.69,3.69,3.07,3.68,1.38,0,1.91-1.56,1.46-3.69Z"></path><path fill="#8eaff1" d="M903.7,421.91c-.72-3.36,.58-5.99,3.33-6,2.73,0,5.14,2.59,5.86,5.98,.72,3.36-.57,5.99-3.33,6-2.76,0-5.14-2.59-5.87-5.98Zm6.86-.01c-.45-2.1-1.71-3.69-3.07-3.68-1.36,0-1.92,1.54-1.46,3.69,.45,2.12,1.69,3.69,3.07,3.68,1.37,0,1.91-1.56,1.46-3.69Z"></path><path fill="#8eaff1" d="M918.01,421.89c-.72-3.36,.58-5.99,3.33-6,2.73,0,5.14,2.59,5.86,5.98,.72,3.36-.57,5.99-3.33,6s-5.14-2.59-5.86-5.98Zm6.86-.01c-.45-2.1-1.71-3.69-3.07-3.68-1.36,0-1.92,1.54-1.46,3.69,.45,2.12,1.69,3.69,3.07,3.68,1.37,0,1.91-1.56,1.46-3.69Z"></path><path fill="#8eaff1" d="M941.39,421.84c-.72-3.36,.58-5.99,3.33-6,2.73,0,5.14,2.59,5.86,5.98,.72,3.36-.57,5.99-3.33,6-2.76,0-5.14-2.59-5.86-5.98Zm6.86-.01c-.45-2.1-1.71-3.69-3.07-3.68-1.36,0-1.92,1.54-1.46,3.69,.45,2.12,1.69,3.69,3.07,3.68,1.38,0,1.91-1.56,1.46-3.69Z"></path><path fill="#8eaff1" d="M956.19,418.52l-1.7,.5-.92-2.08,2.76-1h1.55l2.5,11.66h-2.25l-1.94-9.07Z"></path><path fill="#8eaff1" d="M964.26,421.8c-.72-3.36,.58-5.99,3.33-6,2.73,0,5.14,2.59,5.86,5.98,.72,3.36-.57,5.99-3.33,6-2.76,0-5.14-2.59-5.86-5.98Zm6.86-.01c-.45-2.1-1.71-3.69-3.07-3.68-1.36,0-1.92,1.54-1.46,3.69,.45,2.12,1.69,3.69,3.07,3.68,1.38,0,1.91-1.56,1.46-3.69Z"></path><path fill="#8eaff1" d="M987.17,421.73c-.72-3.36,.58-5.99,3.33-6,2.73,0,5.14,2.59,5.86,5.98,.72,3.36-.57,5.99-3.33,6-2.76,0-5.14-2.59-5.86-5.98Zm6.86-.01c-.45-2.1-1.71-3.69-3.07-3.68-1.36,0-1.92,1.54-1.46,3.69,.45,2.12,1.69,3.69,3.07,3.68,1.38,0,1.91-1.56,1.46-3.69Z"></path><path fill="#8eaff1" d="M590.66,447.67c-.72-3.36,.58-5.99,3.33-6,2.73,0,5.14,2.59,5.86,5.98,.72,3.36-.57,5.99-3.33,6-2.76,0-5.14-2.59-5.86-5.98Zm6.86-.01c-.45-2.1-1.71-3.69-3.07-3.68-1.36,0-1.92,1.54-1.46,3.69,.45,2.12,1.69,3.69,3.07,3.68,1.38,0,1.91-1.56,1.46-3.69Z"></path><path fill="#8eaff1" d="M604.41,447.65c-.72-3.36,.58-5.99,3.33-6,2.73,0,5.14,2.59,5.86,5.98,.72,3.36-.57,5.99-3.33,6-2.76,0-5.14-2.59-5.86-5.98Zm6.86-.01c-.45-2.1-1.71-3.69-3.07-3.68-1.36,0-1.92,1.54-1.46,3.69,.45,2.12,1.69,3.69,3.07,3.68,1.37,0,1.91-1.56,1.46-3.69Z"></path><path fill="#8eaff1" d="M946.78,447.04c-.72-3.36,.58-5.99,3.33-6,2.73,0,5.14,2.59,5.86,5.98,.72,3.36-.57,5.99-3.33,6s-5.14-2.59-5.86-5.98Zm6.86-.01c-.45-2.1-1.71-3.69-3.07-3.68-1.36,0-1.92,1.54-1.46,3.69,.45,2.12,1.69,3.69,3.07,3.68,1.38,0,1.91-1.56,1.46-3.69Z"></path><path fill="#8eaff1" d="M961.58,443.72l-1.7,.5-.92-2.08,2.76-1h1.55l2.5,11.66h-2.25l-1.94-9.08Z"></path><path fill="#8eaff1" d="M969.65,447c-.72-3.36,.58-5.99,3.33-6,2.73,0,5.14,2.59,5.86,5.98,.72,3.36-.57,5.99-3.33,6-2.76,0-5.14-2.59-5.86-5.98Zm6.86-.01c-.45-2.1-1.71-3.69-3.07-3.68-1.36,0-1.92,1.54-1.46,3.69,.45,2.12,1.69,3.69,3.07,3.68,1.37,0,1.91-1.56,1.46-3.69Z"></path><path fill="#8eaff1" d="M1020.06,446.88c-.72-3.36,.58-5.99,3.33-6,2.73,0,5.14,2.59,5.87,5.98,.72,3.36-.57,5.99-3.33,6-2.76,0-5.14-2.59-5.86-5.98Zm6.86-.01c-.45-2.1-1.71-3.69-3.07-3.68-1.36,0-1.92,1.54-1.46,3.69,.45,2.12,1.69,3.69,3.07,3.68,1.37,0,1.91-1.56,1.46-3.69Z"></path><path fill="#8eaff1" d="M1034.87,443.56l-1.7,.5-.92-2.08,2.76-1h1.55l2.5,11.66h-2.25l-1.94-9.07Z"></path><path fill="#8eaff1" d="M579.1,583.73c-.72-3.36,.58-5.99,3.33-6,2.73,0,5.14,2.59,5.86,5.98,.72,3.36-.57,5.99-3.33,6-2.76,0-5.14-2.59-5.86-5.98Zm6.86-.01c-.45-2.1-1.71-3.69-3.07-3.68-1.36,0-1.92,1.54-1.46,3.69,.45,2.12,1.69,3.69,3.07,3.68,1.37,0,1.91-1.56,1.46-3.69Z"></path><path fill="#8eaff1" d="M592.85,583.7c-.72-3.36,.58-5.99,3.33-6,2.73,0,5.14,2.59,5.86,5.98,.72,3.36-.57,5.99-3.33,6-2.76,0-5.14-2.59-5.86-5.98Zm6.86-.01c-.45-2.1-1.71-3.69-3.07-3.68-1.36,0-1.92,1.54-1.46,3.69,.45,2.12,1.69,3.69,3.07,3.68,1.37,0,1.91-1.56,1.46-3.69Z"></path><path fill="#8eaff1" d="M607.65,580.38l-1.7,.5-.92-2.08,2.76-1h1.55l2.5,11.66h-2.25l-1.94-9.07Z"></path><path fill="#8eaff1" d="M629.47,583.63c-.72-3.36,.58-5.99,3.33-6,2.73,0,5.14,2.59,5.86,5.98,.72,3.36-.57,5.99-3.33,6-2.76,0-5.14-2.59-5.86-5.98Zm6.86-.01c-.45-2.1-1.71-3.69-3.07-3.68-1.36,0-1.92,1.54-1.46,3.69,.45,2.12,1.69,3.69,3.07,3.68,1.38,0,1.91-1.56,1.46-3.69Z"></path><path fill="#8eaff1" d="M643.22,583.61c-.72-3.36,.58-5.99,3.33-6,2.73,0,5.14,2.59,5.86,5.98,.72,3.36-.57,5.99-3.33,6-2.76,0-5.14-2.59-5.86-5.98Zm6.86-.01c-.45-2.1-1.71-3.69-3.07-3.68-1.36,0-1.92,1.54-1.46,3.69,.45,2.12,1.69,3.69,3.07,3.68,1.38,0,1.91-1.56,1.46-3.69Z"></path><path fill="#8eaff1" d="M656.97,583.58c-.72-3.36,.58-5.99,3.33-6,2.73,0,5.14,2.59,5.86,5.98,.72,3.36-.57,5.99-3.33,6-2.76,0-5.14-2.59-5.86-5.98Zm6.86-.01c-.45-2.1-1.71-3.69-3.07-3.68-1.36,0-1.92,1.54-1.46,3.69,.45,2.12,1.69,3.69,3.07,3.68,1.37,0,1.91-1.56,1.46-3.69Z"></path><path fill="#8eaff1" d="M828.61,583.73c-.72-3.36,.58-5.99,3.33-6,2.73,0,5.14,2.59,5.86,5.98,.72,3.36-.57,5.99-3.33,6-2.76,0-5.14-2.59-5.86-5.98Zm6.86-.01c-.45-2.1-1.71-3.69-3.07-3.68-1.36,0-1.92,1.54-1.46,3.69,.45,2.12,1.69,3.69,3.07,3.68,1.37,0,1.91-1.56,1.46-3.69Z"></path><path fill="#8eaff1" d="M842.36,583.7c-.72-3.36,.58-5.99,3.33-6,2.74,0,5.14,2.59,5.87,5.98,.72,3.36-.57,5.99-3.33,6-2.76,0-5.14-2.59-5.86-5.98Zm6.86-.01c-.45-2.1-1.71-3.69-3.07-3.68-1.36,0-1.92,1.54-1.46,3.69,.45,2.12,1.69,3.69,3.07,3.68,1.37,0,1.91-1.56,1.46-3.69Z"></path><path fill="#8eaff1" d="M857.17,580.38l-1.7,.5-.92-2.08,2.76-1h1.55l2.5,11.66h-2.25l-1.94-9.07Z"></path><path fill="#8eaff1" d="M920.79,583.73c-.72-3.36,.58-5.99,3.33-6,2.73,0,5.14,2.59,5.87,5.98,.72,3.36-.57,5.99-3.33,6-2.76,0-5.14-2.59-5.86-5.98Zm6.86-.01c-.45-2.1-1.71-3.69-3.07-3.68-1.36,0-1.92,1.54-1.46,3.69,.45,2.12,1.69,3.69,3.07,3.68,1.37,0,1.91-1.56,1.46-3.69Z"></path><path fill="#8eaff1" d="M934.54,583.7c-.72-3.36,.58-5.99,3.33-6,2.73,0,5.14,2.59,5.86,5.98,.72,3.36-.57,5.99-3.33,6-2.76,0-5.14-2.59-5.86-5.98Zm6.86-.01c-.45-2.1-1.71-3.69-3.07-3.68-1.36,0-1.92,1.54-1.46,3.69,.45,2.12,1.69,3.69,3.07,3.68,1.38,0,1.91-1.56,1.46-3.69Z"></path><path fill="#8eaff1" d="M949.34,580.38l-1.7,.5-.92-2.08,2.76-1h1.55l2.5,11.66h-2.25l-1.94-9.07Z"></path><path fill="#8eaff1" d="M878.98,583.63c-.72-3.36,.58-5.99,3.33-6,2.73,0,5.14,2.59,5.86,5.98,.72,3.36-.57,5.99-3.33,6-2.76,0-5.14-2.59-5.86-5.98Zm6.86-.01c-.45-2.1-1.71-3.69-3.07-3.68-1.36,0-1.92,1.54-1.46,3.69,.45,2.12,1.69,3.69,3.07,3.68,1.38,0,1.91-1.56,1.46-3.69Z"></path><path fill="#8eaff1" d="M892.73,583.61c-.72-3.36,.58-5.99,3.33-6,2.73,0,5.14,2.59,5.87,5.98,.72,3.36-.57,5.99-3.33,6-2.76,0-5.14-2.59-5.86-5.98Zm6.86-.01c-.45-2.1-1.71-3.69-3.07-3.68-1.36,0-1.92,1.54-1.46,3.69,.45,2.12,1.69,3.69,3.07,3.68,1.38,0,1.91-1.56,1.46-3.69Z"></path><path fill="#8eaff1" d="M906.48,583.58c-.72-3.36,.58-5.99,3.33-6,2.73,0,5.14,2.59,5.86,5.98,.72,3.36-.57,5.99-3.33,6-2.76,0-5.14-2.59-5.87-5.98Zm6.86-.01c-.45-2.1-1.71-3.69-3.07-3.68-1.36,0-1.92,1.54-1.46,3.69,.45,2.12,1.69,3.69,3.07,3.68,1.37,0,1.91-1.56,1.46-3.69Z"></path><path fill="#8eaff1" d="M703.99,583.32c-.72-3.36,.58-5.99,3.33-6,2.73,0,5.14,2.59,5.86,5.98,.72,3.36-.57,5.99-3.33,6-2.76,0-5.14-2.59-5.86-5.98Zm6.86-.01c-.45-2.1-1.71-3.69-3.07-3.68-1.36,0-1.92,1.54-1.46,3.69,.45,2.12,1.69,3.69,3.07,3.68,1.37,0,1.91-1.56,1.46-3.69Z"></path><path fill="#8eaff1" d="M718.79,580l-1.7,.5-.92-2.08,2.76-1h1.55l2.5,11.66h-2.25l-1.94-9.08Z"></path><path fill="#8eaff1" d="M726.86,583.27c-.72-3.36,.58-5.99,3.33-6,2.73,0,5.14,2.59,5.86,5.98,.72,3.36-.57,5.99-3.33,6-2.76,0-5.14-2.59-5.86-5.98Zm6.86-.01c-.45-2.1-1.71-3.69-3.07-3.68-1.36,0-1.92,1.54-1.46,3.69,.45,2.12,1.69,3.69,3.07,3.68,1.37,0,1.91-1.56,1.46-3.69Z"></path><path fill="#8eaff1" d="M998.8,582.95c-.72-3.36,.58-5.99,3.33-6,2.73,0,5.14,2.59,5.86,5.98,.72,3.36-.57,5.99-3.33,6-2.77,0-5.14-2.59-5.86-5.98Zm6.86-.01c-.45-2.1-1.71-3.69-3.07-3.68-1.36,0-1.92,1.54-1.46,3.69,.45,2.12,1.69,3.69,3.07,3.68,1.38,0,1.91-1.56,1.46-3.69Z"></path><path fill="#8eaff1" d="M1013.61,579.63l-1.7,.5-.92-2.08,2.76-1h1.55l2.5,11.66h-2.25l-1.94-9.08Z"></path><path fill="#8eaff1" d="M1021.68,582.91c-.72-3.36,.58-5.99,3.33-6,2.73,0,5.14,2.59,5.86,5.98,.72,3.36-.57,5.99-3.33,6-2.76,0-5.14-2.59-5.86-5.98Zm6.86-.01c-.45-2.1-1.71-3.69-3.07-3.68-1.36,0-1.92,1.54-1.46,3.69,.45,2.12,1.69,3.69,3.07,3.68,1.38,0,1.91-1.56,1.46-3.69Z"></path><path fill="#8eaff1" d="M497.76,473.84l-1.7,.5-.92-2.08,2.76-1h1.55l2.5,11.66h-2.25l-1.94-9.08Z"></path><path fill="#8eaff1" d="M505.83,477.12c-.72-3.36,.58-5.99,3.33-6,2.73,0,5.14,2.59,5.86,5.98,.72,3.36-.57,5.99-3.33,6-2.76,0-5.14-2.59-5.86-5.98Zm6.86-.01c-.45-2.1-1.71-3.69-3.07-3.68-1.36,0-1.92,1.54-1.46,3.69,.45,2.12,1.69,3.69,3.07,3.68,1.37,0,1.91-1.56,1.46-3.69Z"></path><path fill="#8eaff1" d="M583.7,476.97c-.72-3.36,.58-5.99,3.33-6,2.73,0,5.14,2.59,5.86,5.98,.72,3.36-.57,5.99-3.33,6-2.76,0-5.14-2.59-5.86-5.98Zm6.86-.01c-.45-2.1-1.71-3.69-3.07-3.68-1.36,0-1.92,1.54-1.46,3.69,.45,2.12,1.69,3.69,3.07,3.68,1.37,0,1.91-1.56,1.46-3.69Z"></path><path fill="#8eaff1" d="M597.45,476.94c-.72-3.36,.58-5.99,3.33-6,2.73,0,5.14,2.59,5.86,5.98,.72,3.36-.57,5.99-3.33,6-2.76,0-5.14-2.59-5.86-5.98Zm6.86-.01c-.45-2.1-1.71-3.69-3.07-3.68-1.36,0-1.92,1.54-1.46,3.69,.45,2.12,1.69,3.69,3.07,3.68,1.37,0,1.91-1.56,1.46-3.69Z"></path><path fill="#8eaff1" d="M611.2,476.92c-.72-3.36,.58-5.99,3.33-6,2.73,0,5.14,2.59,5.86,5.98,.72,3.36-.57,5.99-3.33,6-2.76,0-5.14-2.59-5.86-5.98Zm6.86-.01c-.45-2.1-1.71-3.69-3.07-3.68-1.36,0-1.92,1.54-1.46,3.69,.45,2.12,1.69,3.69,3.07,3.68,1.37,0,1.91-1.56,1.46-3.69Z"></path><path fill="#8eaff1" d="M626,473.6l-1.7,.5-.92-2.08,2.76-1h1.55l2.5,11.66h-2.25l-1.94-9.08Z"></path><path fill="#8eaff1" d="M635.2,473.58l-1.7,.5-.92-2.08,2.76-1h1.55l2.5,11.66h-2.25l-1.94-9.08Z"></path><path fill="#8eaff1" d="M643.27,476.86c-.72-3.36,.58-5.99,3.33-6,2.73,0,5.14,2.59,5.86,5.98,.72,3.36-.57,5.99-3.33,6-2.76,0-5.14-2.59-5.86-5.98Zm6.86-.01c-.45-2.1-1.71-3.69-3.07-3.68-1.36,0-1.92,1.54-1.46,3.69,.45,2.12,1.69,3.69,3.07,3.68,1.37,0,1.91-1.56,1.46-3.69Z"></path><path fill="#ff912b" d="M998.83,476.2c-.72-3.36,.58-5.99,3.33-6,2.73,0,5.14,2.59,5.86,5.98,.72,3.36-.57,5.99-3.33,6-2.77,0-5.14-2.59-5.87-5.98Zm6.86-.01c-.45-2.1-1.71-3.69-3.07-3.68-1.36,0-1.92,1.54-1.46,3.69,.45,2.12,1.69,3.69,3.07,3.68,1.37,0,1.91-1.56,1.46-3.69Z"></path><path fill="#ff912b" d="M1012.58,476.18c-.72-3.36,.58-5.99,3.33-6,2.73,0,5.14,2.59,5.87,5.98,.72,3.36-.57,5.99-3.33,6-2.76,0-5.14-2.59-5.86-5.98Zm6.86-.01c-.45-2.1-1.71-3.69-3.07-3.68-1.36,0-1.92,1.54-1.46,3.69,.45,2.12,1.69,3.69,3.07,3.68,1.38,0,1.91-1.56,1.46-3.69Z"></path><path fill="#8eaff1" d="M1026.33,476.15c-.72-3.36,.58-5.99,3.33-6,2.73,0,5.14,2.59,5.86,5.98,.72,3.36-.57,5.99-3.33,6-2.76,0-5.14-2.59-5.86-5.98Zm6.86-.01c-.45-2.1-1.71-3.69-3.07-3.68-1.36,0-1.92,1.54-1.46,3.69,.45,2.12,1.69,3.69,3.07,3.68,1.37,0,1.91-1.56,1.46-3.69Z"></path><path fill="#8eaff1" d="M1041.13,472.83l-1.7,.5-.92-2.08,2.76-1h1.55l2.5,11.66h-2.25l-1.94-9.08Z"></path><path fill="#8eaff1" d="M504.03,503.12l-1.7,.5-.92-2.08,2.76-1h1.55l2.5,11.66h-2.25l-1.94-9.08Z"></path><path fill="#8eaff1" d="M512.1,506.39c-.72-3.36,.58-5.99,3.33-6,2.73,0,5.14,2.59,5.86,5.98,.72,3.36-.57,5.99-3.33,6-2.76,0-5.14-2.59-5.86-5.98Zm6.86-.01c-.45-2.1-1.71-3.69-3.07-3.68-1.36,0-1.92,1.54-1.46,3.69,.45,2.12,1.69,3.69,3.07,3.68,1.37,0,1.91-1.56,1.46-3.69Z"></path><path fill="#8eaff1" d="M576.22,506.27c-.72-3.36,.58-5.99,3.33-6,2.73,0,5.14,2.59,5.86,5.98,.72,3.36-.57,5.99-3.33,6-2.76,0-5.14-2.59-5.86-5.98Zm6.86-.01c-.45-2.1-1.71-3.69-3.07-3.68-1.36,0-1.92,1.54-1.46,3.69,.45,2.12,1.69,3.69,3.07,3.68,1.37,0,1.91-1.56,1.46-3.69Z"></path><path fill="#8eaff1" d="M589.97,506.25c-.72-3.36,.58-5.99,3.33-6,2.73,0,5.14,2.59,5.86,5.98,.72,3.36-.57,5.99-3.33,6-2.76,0-5.14-2.59-5.86-5.98Zm6.86-.01c-.45-2.1-1.71-3.69-3.07-3.68-1.36,0-1.92,1.54-1.46,3.69,.45,2.12,1.69,3.69,3.07,3.68,1.37,0,1.91-1.56,1.46-3.69Z"></path><path fill="#ff912b" d="M537.82,562.92c-.72-3.36,.58-5.99,3.33-6,2.73,0,5.14,2.59,5.86,5.98,.72,3.36-.57,5.99-3.33,6-2.76,0-5.14-2.59-5.86-5.98Zm6.86-.01c-.45-2.1-1.71-3.69-3.07-3.68-1.36,0-1.92,1.54-1.46,3.69,.45,2.12,1.69,3.69,3.07,3.68,1.38,0,1.91-1.56,1.46-3.69Z"></path><path fill="#ff912b" d="M552.63,559.59l-1.7,.5-.92-2.08,2.76-1h1.55l2.5,11.66h-2.25l-1.94-9.08Z"></path><path fill="#8eaff1" d="M509.74,530.39l-1.7,.5-.92-2.08,2.76-1h1.55l2.5,11.66h-2.25l-1.94-9.07Z"></path><path fill="#8eaff1" d="M517.81,533.67c-.72-3.36,.58-5.99,3.33-6,2.73,0,5.14,2.59,5.86,5.98,.72,3.36-.57,5.99-3.33,6-2.76,0-5.14-2.59-5.86-5.98Zm6.86-.01c-.45-2.1-1.71-3.69-3.07-3.68-1.36,0-1.92,1.54-1.46,3.69,.45,2.12,1.69,3.69,3.07,3.68,1.38,0,1.91-1.56,1.46-3.69Z"></path><path fill="#8eaff1" d="M531.55,533.64c-.72-3.36,.58-5.99,3.33-6,2.73,0,5.14,2.59,5.86,5.98,.72,3.36-.57,5.99-3.33,6-2.76,0-5.14-2.59-5.86-5.98Zm6.86-.01c-.45-2.1-1.71-3.69-3.07-3.68-1.36,0-1.92,1.54-1.46,3.69,.45,2.12,1.69,3.69,3.07,3.68,1.37,0,1.91-1.56,1.46-3.69Z"></path><path fill="#8eaff1" d="M546.36,530.32l-1.7,.5-.92-2.08,2.76-1h1.55l2.5,11.66h-2.25l-1.94-9.08Z"></path><path fill="#8eaff1" d="M554.43,533.6c-.72-3.36,.58-5.99,3.33-6,2.73,0,5.14,2.59,5.86,5.98,.72,3.36-.57,5.99-3.33,6-2.76,0-5.14-2.59-5.86-5.98Zm6.86-.01c-.45-2.1-1.71-3.69-3.07-3.68-1.36,0-1.92,1.54-1.46,3.69,.45,2.12,1.69,3.69,3.07,3.68,1.37,0,1.91-1.56,1.46-3.69Z"></path><path fill="#8eaff1" d="M568.17,533.57c-.72-3.36,.58-5.99,3.33-6,2.73,0,5.14,2.59,5.86,5.98,.72,3.36-.57,5.99-3.33,6-2.76,0-5.14-2.59-5.86-5.98Zm6.86-.01c-.45-2.1-1.71-3.69-3.07-3.68-1.36,0-1.92,1.54-1.46,3.69,.45,2.12,1.69,3.69,3.07,3.68,1.37,0,1.91-1.56,1.46-3.69Z"></path><path fill="#8eaff1" d="M581.92,533.55c-.72-3.36,.58-5.99,3.33-6,2.73,0,5.14,2.59,5.86,5.98,.72,3.36-.57,5.99-3.33,6-2.76,0-5.14-2.59-5.86-5.98Zm6.86-.01c-.45-2.1-1.71-3.69-3.07-3.68-1.36,0-1.92,1.54-1.46,3.69,.45,2.12,1.69,3.69,3.07,3.68,1.37,0,1.91-1.56,1.46-3.69Z"></path><path fill="#8eaff1" d="M595.67,533.52c-.72-3.36,.58-5.99,3.33-6,2.73,0,5.14,2.59,5.86,5.98,.72,3.36-.57,5.99-3.33,6-2.76,0-5.14-2.59-5.86-5.98Zm6.86-.01c-.45-2.1-1.71-3.69-3.07-3.68-1.36,0-1.92,1.54-1.46,3.69,.45,2.12,1.69,3.69,3.07,3.68,1.37,0,1.91-1.56,1.46-3.69Z"></path><path fill="#8eaff1" d="M609.42,533.49c-.72-3.36,.58-5.99,3.33-6,2.73,0,5.14,2.59,5.86,5.98,.72,3.36-.57,5.99-3.33,6-2.76,0-5.14-2.59-5.86-5.98Zm6.86-.01c-.45-2.1-1.71-3.69-3.07-3.68-1.36,0-1.92,1.54-1.46,3.69,.45,2.12,1.69,3.69,3.07,3.68,1.38,0,1.91-1.56,1.46-3.69Z"></path><path fill="#8eaff1" d="M623.17,533.47c-.72-3.36,.58-5.99,3.33-6,2.73,0,5.14,2.59,5.86,5.98,.72,3.36-.57,5.99-3.33,6-2.76,0-5.14-2.59-5.86-5.98Zm6.86-.01c-.45-2.1-1.71-3.69-3.07-3.68-1.36,0-1.92,1.54-1.46,3.69,.45,2.12,1.69,3.69,3.07,3.68,1.37,0,1.91-1.56,1.46-3.69Z"></path><path fill="#8eaff1" d="M637.98,530.15l-1.7,.5-.92-2.08,2.76-1h1.55l2.5,11.66h-2.25l-1.94-9.07Z"></path><path fill="#8eaff1" d="M647.17,530.13l-1.7,.5-.92-2.08,2.76-1h1.55l2.5,11.66h-2.25l-1.94-9.08Z"></path><path fill="#8eaff1" d="M655.24,533.41c-.72-3.36,.58-5.99,3.33-6,2.73,0,5.14,2.59,5.86,5.98,.72,3.36-.57,5.99-3.33,6-2.76,0-5.14-2.59-5.86-5.98Zm6.86-.01c-.45-2.1-1.71-3.69-3.07-3.68-1.36,0-1.92,1.54-1.46,3.69,.45,2.12,1.69,3.69,3.07,3.68,1.37,0,1.91-1.56,1.46-3.69Z"></path><path fill="#8eaff1" d="M516.01,559.66l-1.7,.5-.92-2.08,2.76-1h1.55l2.5,11.66h-2.25l-1.94-9.08Z"></path><path fill="#8eaff1" d="M524.07,562.94c-.72-3.36,.58-5.99,3.33-6,2.73,0,5.14,2.59,5.86,5.98,.72,3.36-.57,5.99-3.33,6-2.76,0-5.14-2.59-5.86-5.98Zm6.86-.01c-.45-2.1-1.71-3.69-3.07-3.68-1.36,0-1.92,1.54-1.46,3.69,.45,2.12,1.69,3.69,3.07,3.68,1.37,0,1.91-1.56,1.46-3.69Z"></path><path fill="#8eaff1" d="M560.69,562.87c-.72-3.36,.58-5.99,3.33-6,2.73,0,5.14,2.59,5.86,5.98,.72,3.36-.57,5.99-3.33,5.99-2.76,0-5.14-2.59-5.86-5.98Zm6.86-.01c-.45-2.1-1.71-3.69-3.07-3.68-1.36,0-1.92,1.54-1.46,3.69,.45,2.12,1.69,3.69,3.07,3.68,1.37,0,1.91-1.56,1.46-3.69Z"></path><path fill="#8eaff1" d="M574.44,562.85c-.72-3.36,.58-5.99,3.33-6,2.73,0,5.14,2.59,5.86,5.98,.72,3.36-.57,5.99-3.33,6-2.76,0-5.14-2.59-5.86-5.98Zm6.86-.01c-.45-2.1-1.71-3.69-3.07-3.68-1.36,0-1.92,1.54-1.46,3.69,.45,2.12,1.69,3.69,3.07,3.68,1.38,0,1.91-1.56,1.46-3.69Z"></path><path fill="#8eaff1" d="M549.98,627.82c-.72-3.36,.58-5.99,3.33-6,2.73,0,5.14,2.59,5.86,5.98,.72,3.36-.57,5.99-3.33,6-2.76,0-5.14-2.59-5.86-5.98Zm6.86-.01c-.45-2.1-1.71-3.69-3.07-3.68-1.36,0-1.92,1.54-1.46,3.69,.45,2.12,1.69,3.69,3.07,3.68,1.38,0,1.91-1.56,1.46-3.69Z"></path><path fill="#8eaff1" d="M564.78,624.5l-1.7,.5-.92-2.08,2.76-1h1.55l2.5,11.66h-2.25l-1.94-9.07Z"></path><path fill="#8eaff1" d="M528.16,624.57l-1.7,.5-.92-2.08,2.76-1h1.55l2.5,11.66h-2.25l-1.94-9.08Z"></path><path fill="#8eaff1" d="M536.23,627.85c-.72-3.36,.58-5.99,3.33-6,2.74,0,5.14,2.59,5.86,5.98,.72,3.36-.57,5.99-3.33,6-2.76,0-5.14-2.59-5.86-5.98Zm6.86-.01c-.45-2.1-1.71-3.69-3.07-3.68-1.36,0-1.92,1.54-1.46,3.69,.45,2.12,1.69,3.69,3.07,3.68,1.37,0,1.91-1.56,1.46-3.69Z"></path><path fill="#ff912b" d="M572.85,627.78c-.72-3.36,.58-5.99,3.33-6,2.73,0,5.14,2.59,5.86,5.98,.72,3.36-.57,5.99-3.33,6-2.76,0-5.14-2.59-5.86-5.98Zm6.86-.01c-.45-2.1-1.71-3.69-3.07-3.68-1.36,0-1.92,1.54-1.46,3.69,.45,2.12,1.69,3.69,3.07,3.68,1.37,0,1.91-1.56,1.46-3.69Z"></path><path fill="#ff912b" d="M586.6,627.75c-.72-3.36,.58-5.99,3.33-6,2.73,0,5.14,2.59,5.86,5.98,.72,3.36-.57,5.99-3.33,6-2.76,0-5.14-2.59-5.86-5.98Zm6.86-.01c-.45-2.1-1.71-3.69-3.07-3.68-1.36,0-1.92,1.54-1.46,3.69,.45,2.12,1.69,3.69,3.07,3.68,1.38,0,1.91-1.56,1.46-3.69Z"></path><path fill="#8eaff1" d="M532.99,648.7c-.72-3.36,.58-5.99,3.33-6,2.73,0,5.14,2.59,5.86,5.98,.72,3.36-.57,5.99-3.33,6-2.76,0-5.14-2.59-5.86-5.98Zm6.86-.01c-.45-2.1-1.71-3.69-3.07-3.68-1.36,0-1.92,1.54-1.46,3.69,.45,2.12,1.69,3.69,3.07,3.68,1.37,0,1.91-1.56,1.46-3.69Z"></path><path fill="#8eaff1" d="M547.8,645.38l-1.7,.5-.92-2.08,2.76-1h1.55l2.5,11.66h-2.25l-1.94-9.08Z"></path><path fill="#8eaff1" d="M555.86,648.66c-.72-3.36,.58-5.99,3.33-6,2.73,0,5.14,2.59,5.86,5.98,.72,3.36-.57,5.99-3.33,6-2.76,0-5.14-2.59-5.86-5.98Zm6.86-.01c-.45-2.1-1.71-3.69-3.07-3.68-1.36,0-1.92,1.54-1.46,3.69,.45,2.12,1.69,3.69,3.07,3.68,1.37,0,1.91-1.56,1.46-3.69Z"></path><path fill="#8eaff1" d="M569.61,648.63c-.72-3.36,.58-5.99,3.33-6,2.73,0,5.14,2.59,5.86,5.98,.72,3.36-.57,5.99-3.33,6-2.76,0-5.14-2.59-5.86-5.98Zm6.86-.01c-.45-2.1-1.71-3.69-3.07-3.68-1.36,0-1.92,1.54-1.46,3.69,.45,2.12,1.69,3.69,3.07,3.68,1.37,0,1.91-1.56,1.46-3.69Z"></path><path fill="#8eaff1" d="M588.19,562.82c-.72-3.36,.58-5.99,3.33-6,2.73,0,5.14,2.59,5.86,5.98,.72,3.36-.57,5.99-3.33,6-2.76,0-5.14-2.59-5.86-5.98Zm6.86-.01c-.45-2.1-1.71-3.69-3.07-3.68-1.36,0-1.92,1.54-1.46,3.69,.45,2.12,1.69,3.69,3.07,3.68,1.37,0,1.91-1.56,1.46-3.69Z"></path><path fill="#8eaff1" d="M601.94,562.79c-.72-3.36,.58-5.99,3.33-6,2.73,0,5.14,2.59,5.86,5.98,.72,3.36-.57,5.99-3.33,6-2.76,0-5.14-2.59-5.86-5.98Zm6.86-.01c-.45-2.1-1.71-3.69-3.07-3.68-1.36,0-1.92,1.54-1.46,3.69,.45,2.12,1.69,3.69,3.07,3.68,1.37,0,1.91-1.56,1.46-3.69Z"></path><path fill="#ff912b" d="M567.44,703.35c-.72-3.36,.58-5.99,3.33-6,2.73,0,5.14,2.59,5.86,5.98,.72,3.36-.57,5.99-3.33,6-2.76,0-5.14-2.59-5.86-5.98Zm6.86-.01c-.45-2.1-1.71-3.69-3.07-3.68-1.36,0-1.92,1.54-1.46,3.69,.45,2.12,1.69,3.69,3.07,3.68,1.37,0,1.91-1.56,1.46-3.69Z"></path><path fill="#ff912b" d="M582.25,700.03l-1.7,.5-.92-2.08,2.76-1h1.55l2.5,11.66h-2.25l-1.94-9.07Z"></path><path fill="#8eaff1" d="M539.36,670.83l-1.7,.5-.92-2.08,2.76-1h1.55l2.5,11.66h-2.25l-1.94-9.08Z"></path><path fill="#8eaff1" d="M547.43,674.1c-.72-3.36,.58-5.99,3.33-6,2.73,0,5.14,2.59,5.86,5.98,.72,3.36-.57,5.99-3.33,6-2.76,0-5.14-2.59-5.86-5.98Zm6.86-.01c-.45-2.1-1.71-3.69-3.07-3.68-1.36,0-1.92,1.54-1.46,3.69,.45,2.12,1.69,3.69,3.07,3.68,1.37,0,1.91-1.56,1.46-3.69Z"></path><path fill="#8eaff1" d="M561.17,674.08c-.72-3.36,.58-5.99,3.33-6,2.73,0,5.14,2.59,5.86,5.98,.72,3.36-.57,5.99-3.33,6-2.76,0-5.14-2.59-5.86-5.98Zm6.86-.01c-.45-2.1-1.71-3.69-3.07-3.68-1.36,0-1.92,1.54-1.46,3.69,.45,2.12,1.69,3.69,3.07,3.68,1.37,0,1.91-1.56,1.46-3.69Z"></path><path fill="#8eaff1" d="M575.98,670.76l-1.7,.5-.92-2.08,2.76-1h1.55l2.5,11.66h-2.25l-1.94-9.08Z"></path><path fill="#8eaff1" d="M545.63,700.1l-1.7,.5-.92-2.08,2.76-1h1.55l2.5,11.66h-2.25l-1.94-9.08Z"></path><path fill="#8eaff1" d="M553.69,703.38c-.72-3.36,.58-5.99,3.33-6,2.73,0,5.14,2.59,5.86,5.98,.72,3.36-.57,5.99-3.33,6-2.76,0-5.14-2.59-5.86-5.98Zm6.86-.01c-.45-2.1-1.71-3.69-3.07-3.68-1.36,0-1.92,1.54-1.46,3.69,.45,2.12,1.69,3.69,3.07,3.68,1.38,0,1.91-1.56,1.46-3.69Z"></path><path fill="#8eaff1" d="M590.31,703.31c-.72-3.36,.58-5.99,3.33-6,2.73,0,5.14,2.59,5.86,5.98,.72,3.36-.57,5.99-3.33,6-2.76,0-5.14-2.59-5.86-5.98Zm6.86-.01c-.45-2.1-1.71-3.69-3.07-3.68-1.36,0-1.92,1.54-1.46,3.69,.45,2.12,1.69,3.69,3.07,3.68,1.37,0,1.91-1.56,1.46-3.69Z"></path><path fill="#8eaff1" d="M604.06,703.28c-.72-3.36,.58-5.99,3.33-6,2.73,0,5.14,2.59,5.86,5.98,.72,3.36-.57,5.99-3.33,6-2.76,0-5.14-2.59-5.86-5.98Zm6.86-.01c-.45-2.1-1.71-3.69-3.07-3.68-1.36,0-1.92,1.54-1.46,3.69,.45,2.12,1.69,3.69,3.07,3.68,1.37,0,1.91-1.56,1.46-3.69Z"></path><path fill="#ff912b" d="M572.74,724.02c-.72-3.36,.58-5.99,3.33-6,2.73,0,5.14,2.59,5.86,5.98,.72,3.36-.57,5.99-3.33,6-2.76,0-5.14-2.59-5.86-5.98Zm6.86-.01c-.45-2.1-1.71-3.69-3.07-3.68-1.36,0-1.92,1.54-1.46,3.69,.45,2.12,1.69,3.69,3.07,3.68,1.37,0,1.91-1.56,1.46-3.69Z"></path><path fill="#ff912b" d="M587.55,720.7l-1.7,.5-.92-2.08,2.76-1h1.55l2.5,11.66h-2.25l-1.94-9.08Z"></path><path fill="#8eaff1" d="M558.99,724.05c-.72-3.36,.58-5.99,3.33-6,2.73,0,5.14,2.59,5.86,5.98,.72,3.36-.57,5.99-3.33,6-2.76,0-5.14-2.59-5.86-5.98Zm6.86-.01c-.45-2.1-1.71-3.69-3.07-3.68-1.36,0-1.92,1.54-1.46,3.69,.45,2.12,1.69,3.69,3.07,3.68,1.37,0,1.91-1.56,1.46-3.69Z"></path><path fill="#8eaff1" d="M595.62,723.98c-.72-3.36,.58-5.99,3.33-6,2.73,0,5.14,2.59,5.86,5.98,.72,3.36-.57,5.99-3.33,6-2.76,0-5.14-2.59-5.86-5.98Zm6.86-.01c-.45-2.1-1.71-3.69-3.07-3.68-1.36,0-1.92,1.54-1.46,3.69,.45,2.12,1.69,3.69,3.07,3.68,1.37,0,1.91-1.56,1.46-3.69Z"></path><path fill="#8eaff1" d="M609.36,723.95c-.72-3.36,.58-5.99,3.33-6,2.73,0,5.14,2.59,5.86,5.98,.72,3.36-.57,5.99-3.33,6-2.76,0-5.14-2.59-5.86-5.98Zm6.86-.01c-.45-2.1-1.71-3.69-3.07-3.68-1.36,0-1.92,1.54-1.46,3.69,.45,2.12,1.69,3.69,3.07,3.68s1.91-1.56,1.46-3.69Z"></path><path fill="#8eaff1" d="M617.81,703.26c-.72-3.36,.58-5.99,3.33-6,2.73,0,5.14,2.59,5.86,5.98,.72,3.36-.57,5.99-3.33,6-2.76,0-5.14-2.59-5.86-5.98Zm6.86-.01c-.45-2.1-1.71-3.69-3.07-3.68-1.36,0-1.92,1.54-1.46,3.69,.45,2.12,1.69,3.69,3.07,3.68,1.37,0,1.91-1.56,1.46-3.69Z"></path><path fill="#8eaff1" d="M631.56,703.23c-.72-3.36,.58-5.99,3.33-6,2.73,0,5.14,2.59,5.86,5.98,.72,3.36-.57,5.99-3.33,6-2.76,0-5.14-2.59-5.86-5.98Zm6.86-.01c-.45-2.1-1.71-3.69-3.07-3.68-1.36,0-1.92,1.54-1.46,3.69,.45,2.12,1.69,3.69,3.07,3.68,1.37,0,1.91-1.56,1.46-3.69Z"></path><path fill="#8eaff1" d="M997.03,502.2l-1.7,.5-.92-2.08,2.76-1h1.55l2.5,11.66h-2.25l-1.94-9.07Z"></path><path fill="#8eaff1" d="M1005.1,505.48c-.72-3.36,.58-5.99,3.33-6,2.73,0,5.14,2.59,5.87,5.98,.72,3.36-.57,5.99-3.33,6-2.76,0-5.14-2.59-5.86-5.98Zm6.86-.01c-.45-2.1-1.71-3.69-3.07-3.68-1.36,0-1.92,1.54-1.46,3.69,.45,2.12,1.69,3.69,3.07,3.68,1.38,0,1.91-1.56,1.46-3.69Z"></path><path fill="#8eaff1" d="M1018.85,505.45c-.72-3.36,.58-5.99,3.33-6,2.73,0,5.14,2.59,5.86,5.98,.72,3.36-.57,5.99-3.33,6-2.76,0-5.14-2.59-5.86-5.98Zm6.86-.01c-.45-2.1-1.71-3.69-3.07-3.68-1.36,0-1.92,1.54-1.46,3.69,.45,2.12,1.69,3.69,3.07,3.68,1.37,0,1.91-1.56,1.46-3.69Z"></path><path fill="#8eaff1" d="M1032.6,505.43c-.72-3.36,.58-5.99,3.33-6,2.73,0,5.14,2.59,5.86,5.98,.72,3.36-.57,5.99-3.33,6-2.76,0-5.14-2.59-5.86-5.98Zm6.86-.01c-.45-2.1-1.71-3.69-3.07-3.68-1.36,0-1.92,1.54-1.46,3.69,.45,2.12,1.69,3.69,3.07,3.68,1.37,0,1.91-1.56,1.46-3.69Z"></path><path fill="#8eaff1" d="M1047.4,502.1l-1.7,.5-.92-2.08,2.76-1h1.55l2.5,11.66h-2.25l-1.94-9.08Z"></path><path fill="#8eaff1" d="M982.23,533.44c-.72-3.36,.58-5.99,3.33-6,2.73,0,5.14,2.59,5.86,5.98,.72,3.36-.57,5.99-3.33,6-2.76,0-5.14-2.59-5.86-5.98Zm6.86-.01c-.45-2.1-1.71-3.69-3.07-3.68-1.36,0-1.92,1.54-1.46,3.69,.45,2.12,1.69,3.69,3.07,3.68,1.38,0,1.91-1.56,1.46-3.69Z"></path><path fill="#8eaff1" d="M997.03,530.12l-1.7,.5-.92-2.08,2.76-1h1.55l2.5,11.66h-2.25l-1.94-9.08Z"></path><path fill="#ff912b" d="M1005.1,533.4c-.72-3.36,.58-5.99,3.33-6,2.73,0,5.14,2.59,5.87,5.98,.72,3.36-.57,5.99-3.33,6-2.76,0-5.14-2.59-5.86-5.98Zm6.86-.01c-.45-2.1-1.71-3.69-3.07-3.68-1.36,0-1.92,1.54-1.46,3.69,.45,2.12,1.69,3.69,3.07,3.68,1.38,0,1.91-1.56,1.46-3.69Z"></path><path fill="#ff912b" d="M1018.85,533.37c-.72-3.36,.58-5.99,3.33-6,2.73,0,5.14,2.59,5.86,5.98,.72,3.36-.57,5.99-3.33,6-2.76,0-5.14-2.59-5.86-5.98Zm6.86-.01c-.45-2.1-1.71-3.69-3.07-3.68-1.36,0-1.92,1.54-1.46,3.69,.45,2.12,1.69,3.69,3.07,3.68,1.37,0,1.91-1.56,1.46-3.69Z"></path><path fill="#ff912b" d="M1032.6,533.34c-.72-3.36,.58-5.99,3.33-6,2.73,0,5.14,2.59,5.86,5.98,.72,3.36-.57,5.99-3.33,6-2.76,0-5.14-2.59-5.86-5.98Zm6.86-.01c-.45-2.1-1.71-3.69-3.07-3.68-1.36,0-1.92,1.54-1.46,3.69,.45,2.12,1.69,3.69,3.07,3.68,1.37,0,1.91-1.56,1.46-3.69Z"></path><path fill="#ff912b" d="M1047.4,530.02l-1.7,.5-.92-2.08,2.76-1h1.55l2.5,11.66h-2.25l-1.94-9.08Z"></path><path fill="#8eaff1" d="M1044.61,691.34l-1.7,.5-.92-2.08,2.76-1h1.55l2.5,11.66h-2.25l-1.94-9.08Z"></path><path fill="#8eaff1" d="M1052.67,694.62c-.72-3.36,.58-5.99,3.33-6,2.73,0,5.14,2.59,5.86,5.98,.72,3.36-.57,5.99-3.33,6-2.76,0-5.14-2.59-5.86-5.98Zm6.86-.01c-.45-2.1-1.71-3.69-3.07-3.68-1.36,0-1.92,1.54-1.46,3.69,.45,2.12,1.69,3.69,3.07,3.68,1.38,0,1.91-1.56,1.46-3.69Z"></path><path fill="#8eaff1" d="M1066.42,694.59c-.72-3.36,.58-5.99,3.33-6,2.73,0,5.14,2.59,5.86,5.98,.72,3.36-.57,5.99-3.33,6-2.76,0-5.14-2.59-5.86-5.98Zm6.86-.01c-.45-2.1-1.71-3.69-3.07-3.68-1.36,0-1.92,1.54-1.46,3.69,.45,2.12,1.69,3.69,3.07,3.68,1.38,0,1.91-1.56,1.46-3.69Z"></path><path fill="#8eaff1" d="M1031.1,710.32l-1.7,.5-.92-2.08,2.76-1h1.55l2.5,11.66h-2.25l-1.94-9.08Z"></path><path fill="#8eaff1" d="M1039.16,713.6c-.72-3.36,.58-5.99,3.33-6,2.73,0,5.14,2.59,5.86,5.98,.72,3.36-.57,5.99-3.33,6-2.76,0-5.14-2.59-5.86-5.98Zm6.86-.01c-.45-2.1-1.71-3.69-3.07-3.68-1.36,0-1.92,1.54-1.46,3.69,.45,2.12,1.69,3.69,3.07,3.68,1.37,0,1.91-1.56,1.46-3.69Z"></path><path fill="#8eaff1" d="M1052.91,713.57c-.72-3.36,.58-5.99,3.33-6,2.73,0,5.14,2.59,5.86,5.98,.72,3.36-.57,5.99-3.33,6-2.76,0-5.14-2.59-5.86-5.98Zm6.86-.01c-.45-2.1-1.71-3.69-3.07-3.68-1.36,0-1.92,1.54-1.46,3.69,.45,2.12,1.69,3.69,3.07,3.68,1.38,0,1.91-1.56,1.46-3.69Z"></path><path fill="#8eaff1" d="M1080.17,694.57c-.72-3.36,.58-5.99,3.33-6,2.73,0,5.14,2.59,5.87,5.98,.72,3.36-.57,5.99-3.33,5.99-2.76,0-5.14-2.59-5.86-5.98Zm6.86-.01c-.45-2.1-1.71-3.69-3.07-3.68-1.36,0-1.92,1.54-1.46,3.69,.45,2.12,1.69,3.69,3.07,3.68,1.37,0,1.91-1.56,1.46-3.69Z"></path><path fill="#8eaff1" d="M1094.98,691.25l-1.7,.5-.92-2.08,2.76-1h1.55l2.5,11.66h-2.25l-1.94-9.07Z"></path><g><g><path fill="#0b3563" d="M1280.38,559.94c5.1-.55,16.85,1.01,24.52,12.85,7.67,11.84,2.36,25.8,21.53,36.56,19.17,10.76,16.42,24.32,12.59,41.34-3.83,17.01-19.91,37.58-39.09,36.58-19.17-1-51.96-45.65-50.78-60.62,1.18-14.97,6.88-16.76,2.36-26.66-7.08-15.51,6.05-37.6,28.87-40.05Z"></path><path fill="#ffae73" d="M1287.86,630.95c.1-.15,.15-.25,.14-.25-2.12-.86-2.31-4.37-.34-18.97l-1.02,.05-17.12,.93s-.4,5.98-1.12,11.56c-.14,1.11-.3,2.2-.47,3.23-12.88,14.5,14.84,21.07,19.93,3.45Z"></path><path fill="#033c7e" d="M1252.87,1023.74h36.98s.89-6.37-1.05-11.21c-1.85-4.64-4.73-7.5-4.99-11.06-2.35,2.74-5.24,4.5-10.59,3.68-.65,1.2-4.23,7.63-6.42,9.41-2.42,1.96-13.19,1.26-13.94,9.18Z"></path><path fill="#26529f" d="M1296.28,852.78c-3.45,9.61-6.09,18.36-5.26,26.06,0,.02,0,.03,0,.04,.09,.85,.23,1.69,.41,2.52,12.14,54.88-5.07,126.34-5.07,126.34,0,0-4.54,1.19-7.84,1.52-5.83,.59-6.68-1.37-6.68-1.37,0,0-5.79-58.27-24.52-169.67-2.7-16.09-3.77-24.99-4.74-39.29-.3-4.28-.58-9.05-.89-14.63-.85-15.01,1.16-40.28,11.13-46.92,4.53-3.03,10.7-2.2,19,5.19,.65,.59,1.27,1.28,2.01,1.87,50.95,41.48,32.98,79.01,22.45,108.35Z"></path><path fill="#1e3865" d="M1291.02,878.84c-.57-2.26-18.9-74.68-19.21-80.18-.67-11.83,23.56,20.84,24.47,54.12-3.45,9.61-6.09,18.36-5.26,26.06Z"></path><path fill="#033c7e" d="M1420.69,935.72l-15.39-38.03s-5.49,1.74-8.58,5.74c-2.96,3.83-5.1,3.15-11.85-2.14,2.54,4.43,2.88,7.05,4.45,12.88,1.24,.17,8.29,7.89,15.51,10.02,2.88,.85,9.18,14.06,15.85,11.53Z"></path><path fill="#26529f" d="M1259.32,754.05s33.14,130.28,45.28,138.67c12.14,8.39,72.17,25.07,89.9,29.07,0,0,.64-5.42-.29-10.9-.21-1.22-2.04-5.59-2.04-5.59,0,0-31.52-35.67-62.33-40.66-6.45-1.05,2.59-114.97-41.17-119.44-39.97-4.08-29.35,8.85-29.35,8.85Z"></path><path fill="#ffae73" d="M1210.2,549.03s.74-4.18,1.57-7.36c.37-1.41-2.2-10.67-3.98-11.81-1.78-1.14-6.42,5.1-5.1,9.89,.67,2.46,1.78,10.47,1.78,10.47l5.73-1.18Z"></path><path fill="#ffae73" d="M1363.21,556.77c.23,.53,.54,1.47,.82,2.36,0-.24,0-.48,.01-.72,.02-1.77,5.86-11.41,8.26-12.01,2.4-.6,5.8,8.42,2.79,13.41-1.54,2.56-6.2,11.7-6.2,11.7l-5.16-3.52s-.03-2.46-1.42-4.45c-.7-1-.73-5.73-.98-7.79,0,0,1.03-.94,1.87,1.02Z"></path><path fill="#f9924f" d="M1269.52,612.72s-.4,5.98-1.12,11.56c9.34,1.27,15.52-7.5,18.24-12.49l-17.12,.93Z"></path><path fill="#0b3563" d="M1289.85,609.35s6.54-8.58,8.88-16.46c1.67-5.63,1.88-27.48-17.56-27.6,0,0-5.61-.31-11.33,2.78-4.55,2.46-11.41,8.27-7.2,28.09l.9,6.61,26.3,6.58Z"></path><path fill="#ffae73" d="M1264.96,617.43s23.86,4.47,26.09-12.38c2.23-16.85,6.82-27.61-8.32-31.18-15.14-3.57-18.96,2.36-20.91,7.78-1.95,5.42-3,34.18,3.14,35.78Z"></path><path fill="#0b3563" d="M1269.5,571.52s6.34,20.98,16.01,25.59c9.66,4.61,14.42,2.3,14.42,2.3,0,0-6.8-8.22-6.81-20.58,0,0-17.45-15.89-23.62-7.31Z"></path><path fill="#0b3563" d="M1273.31,573.51s-4.39,1.31-8.3,6.65c-2.56,3.5-3.47,8.37-4.62,13.18,0,0-3.17-14.27,3.38-20.93,6.94-7.07,9.54,1.1,9.54,1.1Z"></path><path fill="#a9c2ff" d="M1369.86,571.59s-5.24,48.39-16.29,59.96c-7.67,8.03-34.81,20.98-41.29,32.91-.77,1.43-1.72,5.46-2.46,11.46-2.19,17.54-2.74,51.8,7.37,86.2,.47,1.59,.96,3.19,1.48,4.78,1.38,4.25-.48,8.95-4.25,10.47-4.75,1.91-11.73,4.31-19.99,5.91-1.57,.31-3.19,.58-4.84,.82-22.76,3.27-38.17-2.77-46-7.24-3.7-2.11-5.93-6.5-5.7-11.18,.47-9.55,4.7-19,6.6-41.96,1.44-17.42-9.07-41.99-8.51-51.26,.22-3.66,1.82-19.94,.19-22.46-10.83-16.81-29.04-32.92-31.83-48.28-3.23-17.7-1.14-53.03-1.14-53.03,.89-.35,3.33-1.44,5.05-1.44,3.07,0,5.23,3.19,5.23,3.19,0,0,8.12,34.41,8.53,36.72,2.16,12.35,22.92,30.23,29.2,33.82,6.88,3.94,12.39,6.05,16.72,6.5,0,0-5.12,10,2.45,11.39,9.12,1.67,16.16-10.18,16.16-10.18,0,0,5.54,1.76,15.51,.1,8.27-1.37,37.72-12.63,41.97-21.18,3.1-6.21,19.45-40.68,19.45-40.68,0,0,1.52-.99,3.96,.44,2.41,1.42,2.42,4.2,2.42,4.2Z"></path><path fill="#fff" d="M1271.89,608.28s-1.02,2.33-2.39,2.37c-1.37,.04-4.86-.33-5.1-.73-.24-.4-.82-2.84-.82-2.84,0,0,5.77-.26,8.31,1.2Z"></path><path fill="#8eaff1" d="M1317.18,762.13s-20.48-3.97-21.84-20.46c-1.45-17.56,14.46-65.78,14.46-65.78v.04c-2.18,17.54-2.72,51.8,7.38,86.2Z"></path></g><g><path fill="#ff912b" d="M1267.27,356.53l-2.13-8.85c-2.29-9.49-9.44-16.46-18.08-17.62l-55.65-7.43-4.17,39.94-17.81,170.51,230.22,30.76,17.81-170.51-130.28-17.4c-9.51-1.27-17.38-8.94-19.9-19.39Z"></path><g><path fill="#fff" d="M1212.76,455.24l1.58-15.17,49.48-17.02-1.62,15.5-34.45,10.89,31.26,19.67-1.64,15.72-44.61-29.59Z"></path><path fill="#fff" d="M1314.61,411.44l12.54,1.68-53.69,96.04-12.54-1.68,53.69-96.04Z"></path><path fill="#fff" d="M1375.11,461.55l-1.58,15.17-49.48,17.02,1.62-15.5,34.45-10.89-31.26-19.67,1.64-15.72,44.61,29.59Z"></path></g></g><path fill="#ffae73" d="M1361.92,562.26s-.68-6.71-1.27-7.96c-.59-1.25,.88-1.61,2.14,1.25,1.26,2.87,3.76,2,5.01,4.84,1.25,2.84,.15,3.59-1.4,3.42-1.55-.17-4.48-1.55-4.48-1.55Z"></path><path fill="#ffae73" d="M1210.61,546.85s3.38-4.13,3.36-5.98c-.02-1.85,2.36-6.42,1.7-7.26-.66-.83-1.84,.5-2.47,1.75-.63,1.25-3.21,1.17-3.8,4.59-.59,3.42,1.21,6.89,1.21,6.89Z"></path></g><g><g><g><polygon fill="#2a3967" points="676.11 525.65 763.53 568.96 763.53 530.42 717.99 509.24 763.53 488.05 763.53 449.88 676.11 493.19 676.11 525.65"></polygon><polygon fill="#2a3967" points="843.91 423.19 768.37 601.77 800.29 601.77 875.84 423.19 843.91 423.19"></polygon></g><polygon fill="#2a3967" points="881.68 449.88 881.68 488.41 927.23 509.6 881.68 530.78 881.68 568.96 969.11 525.65 969.11 493.19 881.68 449.88"></polygon></g><rect fill="#2a3967" height="10.2" width="31.93" y="591.58" x="768.37"></rect><rect fill="#2a3967" height="10.2" width="14.92" y="413" x="860.92"></rect></g><g><g><polygon fill="#25468f" points="676.11 515.45 763.53 558.76 763.53 520.22 717.99 499.04 763.53 477.86 763.53 439.68 676.11 482.99 676.11 515.45"></polygon><polygon fill="#25468f" points="843.91 413 768.37 591.58 800.29 591.58 875.84 413 843.91 413"></polygon></g><polygon fill="#25468f" points="881.68 439.68 881.68 478.22 927.23 499.4 881.68 520.59 881.68 558.76 969.11 515.45 969.11 482.99 881.68 439.68"></polygon></g><polygon fill="#8eaff1" points="1166.4 799.61 1161.07 799.61 1117.5 611.56 1061.48 369.81 435.89 369.81 530.66 799.61 523.89 799.69 427.99 363.98 1065.88 363.36 1066.44 365.76 1122.44 608.8 1166.4 799.61"></polygon><polygon fill="#a9c2ff" points="1167.36 803.8 1162.23 804.58 1117.5 611.56 1122.44 608.8 1167.36 803.8"></polygon><path fill="#ffae73" d="M525.29,471.07c-1.17,1.51-1.32,3.21-.74,5.01,0,0,0,.02,.01,.02,1.07,3.34,4.6,7.07,8.7,10.8,.52,.48,.99,.91,1.4,1.32,.11,.11,.21,.21,.31,.32,.08,.08,.16,.17,.24,.25,3.83,3.99,2.39,4.9,9.26,13,7.84,9.22,13.23,9.39,14.77,8.55,1.3-.72-1.34-5.61-4.26-11.11-.14-.26-.28-.53-.43-.8-.39-.73-.78-1.47-1.16-2.21-3.43-6.62-2.55-9.72-1.73-19.57,.66-8,11.01-44.7,11.01-44.7l-15.02-2.93s-4.52,29.23-9.51,33.73c-2.67,2.4-5.65,2.43-8.21,4.21-.18,.12-.36,.25-.53,.38-1.46,1.09-2.94,2.22-4.11,3.74Z"></path><path fill="#1e3865" d="M525.29,471.07c-1.17,1.51-1.32,3.21-.74,5.01,0,0,0,.02,.01,.02,1.31,3.34,4.75,7.05,8.72,10.76,.52,.49,.98,.93,1.38,1.35,.11,.11,.21,.21,.31,.32,.08,.08,.16,.17,.24,.25,3.83,3.99,2.39,4.9,9.26,13,7.84,9.22,13.23,9.39,14.77,8.55,1.3-.72-1.34-5.61-4.26-11.11-1.53-.63-8.61-3.89-13.97-11.64-4.72-6.81-7.87-15.56-11.08-20.63-.18,.12-.36,.25-.53,.38-1.46,1.09-2.94,2.22-4.11,3.74Z"></path><path fill="#ffae73" d="M646.4,460.46c.93,5.24,7.54,4.37,14.92,2.33,7.38-2.04,5.63,.39,16.14-.93,10.51-1.32,13.69-5.75,14.01-7.51,.29-1.57-4.91-2.12-10.47-2.85-.7-.09-1.4-.19-2.11-.28-6.29-.89-10.89-5.48-16.6-9.25-5.41-3.57-13.48-18.11-13.48-18.11l-14.41,1.29s7.56,12.99,10.49,18.64c1.72,3.32,1.63,7.71,1.41,11.11-.11,1.84-.22,3.73,.11,5.57Z"></path><path fill="#1e3865" d="M661.32,462.79c7.38-2.04,5.63,.39,16.14-.93,10.51-1.32,13.69-5.75,14.01-7.51,.29-1.57-4.91-2.12-10.47-2.85l-.05,.12s-6.3,5.05-15.05,5.29c-7.13,.2-14.68-2.11-19.6-2.02-.11,1.84-.22,3.73,.11,5.57,.93,5.24,7.54,4.37,14.92,2.33Z"></path><path fill="#2a3967" d="M591.17,356.24l-13.47,41-17.59,53.53s-4.77,.52-9.34-.97c-4.21-1.38-9.04-4.97-9.04-4.97,0,0,4.88-57.48,13.99-90.47,2.33-8.47,4.95-15.32,7.84-19.18,14.12-18.88,27.61,21.06,27.61,21.06Z"></path><path fill="#26529f" d="M577.48,291.14c-8.83-3.22-34,.91-59.28,6.51l-5.29-9.88-54.62-4.82s-18.02,45.2-8.16,74c1.45,4.23,4.33,6.95,9.24,7.04h.8s32.51-.02,43.06-.02c27.16,0,57.48-21.12,61.41-22,6.42-1.45,8.99,13.07,15.41,28.32,6.42,15.25,60.35,67.53,60.35,67.53,0,0,8.29,.09,11.71-1.36,3.68-1.56,5.03-3.59,5.03-3.59,0,0-59.76-134.46-79.66-141.73Z"></path><path fill="#25468f" d="M494.8,99.73c-7.65-2.23-18.13,0-19.87,.18-20.78,2.31-27.76,28.53-24.62,48.87,2.9,18.77-5.52,23.97-15.27,38.79-19.56,29.73-6.78,54.8,8.66,61.26,9.26,3.88,22.12-5.9,22.12-5.9,.23,.1,40.41-29.77,56.88-46.61,27.43-12.14-8.4-90.93-27.9-96.6Z"></path><path fill="#ffae73" d="M497.87,185.72c.55,2.18-8.54,6.17-15.48,4.7-6.53-1.38-13.84-10.02-12.34-10.83,2.5-1.34,4.18-4.68,2.81-22.73l1.24,.16,20.89,2.7s.06,7.36,.55,14.25c.41,5.79,1.44,8.21,2.33,11.76Z"></path><path fill="#f9924f" d="M494.99,159.71s.06,7.36,.55,14.25c-11.53,.7-18.47-10.6-21.43-16.95l20.89,2.7Z"></path><path fill="#ffae73" d="M499.31,165.88s-27.17,3.03-28.58-16.14c-1.41-19.17-5.86-31.69,11.43-34.43,17.29-2.75,21.2,4.25,23.05,10.52,1.85,6.27,1.14,38.77-5.89,40.05Z"></path><path fill="#25468f" d="M496.39,112.28s-3.42,23.42-18.9,28.97c-11.29,4.05-16.4,1.38-16.4,1.38,0,0,5.44-8.15,7.37-19.48,.57-3.34,2.67-6.09,5.53-7.15,8.02-2.99,17.74-11.15,22.41-3.72Z"></path><path fill="#25468f" d="M491.27,117.28s5.12,1.29,9.66,8.76c2.48,4.08,5.35,14.38,4.86,18.94,0,0,4.76-21.67-2.18-29.74-7.35-8.55-12.34,2.03-12.34,2.03Z"></path><path fill="#ff912b" d="M448.94,248.68c.48,2.33,.9,4.47,1.24,6.44,.55,3.19,.93,5.94,1.2,8.36,.83,7.56,.58,12.04,1.14,16.94,.31,2.74,.88,5.61,2.03,9.22,1.12,3.51,30.65,6.64,47.46,5.38,5.34-.39,9.4-1.24,10.84-2.65,5.99-5.89,5.4,7.06,6.22-54.89,.4-30.22-22.67-57.13-22.67-57.13,0,0-1.84,12.91-24.72-2.45-.81-.54-9.82,14.55-18.5,33.13-9.55,20.53-6.93,24.87-4.24,37.65Z"></path><path fill="#25468f" d="M577.7,397.24l-17.59,53.53s-4.77,.52-9.34-.97c-4.21-1.38-9.04-4.97-9.04-4.97,0,0,4.88-57.48,13.99-90.47l21.97,42.88Z"></path><path fill="#ff912b" d="M496.39,180.35s23.54,4.51,26.31,15.98c2.76,11.46,21.86,75.58,21.86,75.58,0,0-14.8,5.71-20.33-.54-5.53-6.25-19.24-58.01-19.24-58.01l-8.6-33Z"></path><path fill="#ffae73" d="M592.36,257.17l5.58-2.5s3.35-.84,5.17-.2c1.81,.64,6.35,.58,6.37,1.42,.02,.84-5.17,3.46-5.17,3.46l-.16-.07c1.97,5.05,11.83,7.93,12.31,9.79,.58,2.25-4.01,3.41-6.51,4.11-2.5,.7-8.62,.63-11.64-2.97-2.21-2.63-5.94-6.25-5.94-6.25v-6.78Z"></path><path fill="#fff" d="M493.03,154.58s1.14,3.15,4.15,3.15,3.82-.51,4.39-1.23c.57-.72,1.13-2.11,1.13-2.11,0,0-4.99-1.11-9.67,.19Z"></path><path fill="#ff912b" d="M538,249.75l56.99,4.92s1.19,6.25-2.48,13.34c0,0-51.42,11.37-64.84,5.56-13.42-5.81-11.91-33.19-11.91-33.19l22.23,9.37Z"></path><path fill="#fc7600" d="M451.38,263.49c.83,7.56,.58,12.04,1.14,16.94,21.38,.08,49.95-18.67,49.95-18.67l-51.1,1.73Z"></path><path fill="#fc7600" d="M502.47,245.9s-33.3-1.12-38.91-22.53c-6.17-23.52-13.07,9.67-13.07,9.67l3.68,21.18h36.53l11.78-8.32Z"></path><g><path fill="#a9c2ff" d="M560.52,187.82l-1.8-5.04c-1.93-5.4-6.57-8.94-11.72-8.94h-33.2v125.53h137.32v-101.7h-77.71c-5.67,0-10.77-3.89-12.9-9.84Z"></path><g><path fill="#fff" d="M534.52,250.17v-9.05l28.06-13.9v9.25l-19.6,9.11,19.6,9.11v9.38l-28.06-13.9Z"></path><path fill="#fff" d="M591.74,216.4h7.48l-25.68,60.72h-7.48l25.68-60.72Z"></path><path fill="#fff" d="M630.42,241.12v9.05l-28.06,13.9v-9.25l19.6-9.11-19.6-9.11v-9.38l28.06,13.9Z"></path></g></g><path fill="#ffae73" d="M502.47,250.87l2.41-4.28s1.91-.7,4.58-2.83c3.18-2.53,2.76-6.31,4.35-5.91l.02,8.32-.17,.03c6.82,2.06,14.8-.18,14.96,1.74,.44,5.29-3.18,7.67-6.2,9.32-2.32,1.27-4.95,3.17-9.14,1.69-3.06-1.08-7.88-2.17-7.88-2.17l-2.93-5.92Z"></path><path fill="#ff912b" d="M471.67,177.9s-21.62,1.6-27.02,11.13c-5.4,9.53-12.11,57.94-9.3,74.57,2.81,16.63,72.03-3.18,72.03-3.18l-2.21-14.42s-39.95,.26-42.23-5.62c-3.03-7.82,8.72-62.48,8.72-62.48Z"></path><path fill="#ffae73" d="M576.01,197.61c-.19,.63,3.25,7.04,8.16,5.93,3.06-.69,7.04-8.15,3.54-9.79-5.83-2.74-11.21,2.17-11.7,3.86Z"></path></g></g></g></svg>