<?xml version="1.0" standalone="no"?><!DOCTYPE svg PUBLIC "-//W3C//DTD SVG 1.1//EN" "http://www.w3.org/Graphics/SVG/1.1/DTD/svg11.dtd"><svg t="1719756822192" class="icon" viewBox="0 0 1024 1024" version="1.1" xmlns="http://www.w3.org/2000/svg" p-id="9980" xmlns:xlink="http://www.w3.org/1999/xlink" width="32" height="32"><path d="M864 256h-64v-32c0-52.9-43.1-96-96-96H320c-52.9 0-96 43.1-96 96v32h-64c-52.9 0-96 43.1-96 96v448c0 52.9 43.1 96 96 96h704c52.9 0 96-43.1 96-96V352c0-52.9-43.1-96-96-96z m-576-32c0-17.6 14.4-32 32-32h384c17.6 0 32 14.4 32 32v32H288v-32z m-128 96h704c17.6 0 32 14.4 32 32v32H128v-32c0-17.6 14.4-32 32-32z m704 512H160c-17.6 0-32-14.4-32-32V448h768v352c0 17.6-14.4 32-32 32z" p-id="9981" fill="#2563EB"></path><path d="M608 608h-64v-64c0-17.7-14.3-32-32-32s-32 14.3-32 32v64h-64c-17.7 0-32 14.3-32 32s14.3 32 32 32h64v64c0 17.7 14.3 32 32 32s32-14.3 32-32v-64h64c17.7 0 32-14.3 32-32s-14.3-32-32-32z" p-id="9982" fill="#2563EB"></path></svg>