<?xml version="1.0" standalone="no"?><!DOCTYPE svg PUBLIC "-//W3C//DTD SVG 1.1//EN" "http://www.w3.org/Graphics/SVG/1.1/DTD/svg11.dtd"><svg t="1718156487274" class="icon" viewBox="0 0 1114 1024" version="1.1" xmlns="http://www.w3.org/2000/svg" p-id="7210" xmlns:xlink="http://www.w3.org/1999/xlink" width="34.8125" height="32"><path d="M116.073412 140.167529a23.220706 23.220706 0 1 1 0-46.471529 23.220706 23.220706 0 0 1 0 46.471529z m92.852706 0a23.220706 23.220706 0 1 1 0.030117-46.471529 23.220706 23.220706 0 0 1 0 46.471529z m92.882823 0a23.220706 23.220706 0 1 1 0-46.471529 23.220706 23.220706 0 0 1 0 46.471529zM255.367529 465.528471a23.190588 23.190588 0 0 1 0-46.501647h510.765177a23.190588 23.190588 0 1 1 0 46.501647H255.367529z m278.588236 232.387764a23.190588 23.190588 0 1 1 0 46.47153H255.397647a23.190588 23.190588 0 1 1 0-46.47153h278.588235z m491.52-418.334117a88.997647 88.997647 0 0 1 62.855529 151.883294l-66.861176 66.921412v431.917176a93.003294 93.003294 0 0 1-92.852706 92.973176H92.852706A93.033412 93.033412 0 0 1 0 930.304V93.696A93.033412 93.033412 0 0 1 92.852706 0.722824h835.764706c51.2 0 92.882824 41.682824 92.882823 92.973176v186.307765c1.325176-0.060235 2.650353-0.391529 3.97553-0.39153zM46.441412 93.726118v92.943058h928.617412V93.696c0-25.630118-20.811294-46.501647-46.441412-46.501647H92.852706c-25.6 0-46.411294 20.871529-46.411294 46.501647z m928.617412 836.608V544.858353l-169.35153 169.502118a23.070118 23.070118 0 0 1-11.89647 6.324705l-116.013177 23.250824a23.220706 23.220706 0 0 1-27.286588-27.346824l22.287059-111.616H255.367529a23.190588 23.190588 0 1 1 0-46.501647h454.656l252.626824-252.807529a87.341176 87.341176 0 0 1 12.408471-10.179765V233.110588H46.441412v697.163294c0 25.630118 20.781176 46.501647 46.411294 46.501647h835.764706c25.6 0 46.441412-20.871529 46.441412-46.501647z m-197.210353-253.801412l210.823529-210.974118-60.054588-60.114823-210.733177 210.974117-15.028706 75.14353 74.992942-15.028706z m277.654588-277.89553a42.526118 42.526118 0 0 0-60.024471-60.114823l-34.032941 34.032941 60.054588 60.144941 34.002824-34.032941z" fill="#2563EB" p-id="7211"></path></svg>